<svg width="472" height="472" fill="none" xmlns="http://www.w3.org/2000/svg"><g clip-path="url(#clip0_67_2080)"><path d="M236.003 469.279c128.835 0 233.276-104.441 233.276-233.276 0-128.836-104.441-233.277-233.276-233.277-128.836 0-233.277 104.441-233.277 233.277 0 128.835 104.441 233.276 233.277 233.276z" fill="#FF9700"/><path opacity=".65" d="M279.365 6.752C164.055-13.21 51.503 53.732 15.113 160.805-23.48 274.354 33.696 403.277 148.05 452.127 43.525 400.493-8.083 279.711 26.347 169.948 59.89 63.004 166.572-6.264 279.365 6.752z" fill="#fff"/><path d="M402.621 184.389c19.097-4.686 38.194-9.367 57.286-14.054a258.13 258.13 0 017.784 84.209 258.252 258.252 0 01-19.008 80.14l-56.168-21.403c6.489-15.899 14.237-40.317 15.584-70.893a211.805 211.805 0 00-5.478-57.993v-.006z" fill="#FF0"/><path d="M236.003 408.964c95.524 0 172.961-77.437 172.961-172.961 0-95.524-77.437-172.962-172.961-172.962-95.524 0-172.962 77.438-172.962 172.962 0 95.524 77.438 172.961 172.962 172.961z" fill="#D3DBEA"/><path d="M138.312 378.744c85.513 50.895 193.353 25.833 242.906-48.757 42.015-63.245 35.604-152.281-18.499-214.893 45.915 62.989 48.505 146.505 7.706 207.03-48.122 71.397-147.91 97.901-232.119 56.62h.006z" fill="#B6BFCE"/><mask id="mask0_67_2080" style="mask-type:luminance" maskUnits="userSpaceOnUse" x="63" y="63" width="346" height="346"><path d="M236.003 408.964c95.524 0 172.961-77.437 172.961-172.961 0-95.524-77.437-172.962-172.961-172.962-95.524 0-172.962 77.438-172.962 172.962 0 95.524 77.438 172.961 172.962 172.961z" fill="#fff"/></mask><g mask="url(#mask0_67_2080)"><path d="M310.634 406.265c-2.328-.855-6.102-1.867-10.516-1.185-2.977.456-5.431 1.557-11.947 5.819a217.494 217.494 0 00-13.199 9.346 29.59 29.59 0 00-9.567 1.783c-8.869 3.255-13.598 9.949-15.553 12.801-3.266 4.759-4.592 9.079-5.541 12.266-2.118 7.103-.702 7.795-2.301 16.785-2.506 14.101-7.879 23.081-10.007 26.368a55.994 55.994 0 01-1.552 2.28 600.3 600.3 0 01-.802 34.964 599.785 599.785 0 01-6.018 59.005 62.535 62.535 0 01-6.316-8.178c-2.815-4.35-6.375-9.975-7.528-17.838a35.242 35.242 0 01-.178-8.802 47.088 47.088 0 01-1.064-7.276c-.414-6.143.471-10.945 1.237-14.552 3.119-14.662 9.97-36.369 10.295-37.396-1.022-1.159-2.432-3.02-3.376-5.594-1.122-3.061-.949-5.399-1.09-8.99a76.297 76.297 0 00-1.211-10.788c.603-5.672.283-10.039-.094-12.859-.299-2.217-.671-3.816-1.395-5.488-1.19-2.768-2.374-3.565-3.674-5.541-3.382-5.143-2.878-11.15-2.669-12.833.215-1.766.871-5.069 3.277-8.68a69.832 69.832 0 01-1.117-7.476c-.115-1.247-.21-2.626.676-3.496.566-.551 1.321-.692 1.84-.729a34.472 34.472 0 01-1.656-6.689 121.2 121.2 0 01-2.118-3.087c-3.046-4.592-3.129-5.399-2.894-5.96.131-.304.713-1.379 3.874-1.51 0-2.223.928-2.972 1.185-3.161.671-.482 1.866-.44 4.23-.341.86.037 1.568.089 2.066.136.094-1.174.094-2.83-.372-4.738a14.99 14.99 0 00-2.983-5.945c2.547-5.955 5.635-10.169 7.91-12.843 1.127-1.321 16.942-19.327 40.013-17.849a43.253 43.253 0 0111.066 2.196 186.023 186.023 0 0119.579 22.667 186.147 186.147 0 0119.479 33.402l.011.006z" fill="#FFCE00"/><path d="M212.733 395.922c.378-.393.734-.812 1.185-1.164 1.394-1.09 3.161-.796 4.828-.518 1.688.283 3.381-.682 3.397-2.564.042-5.064-.813-9.965-2.632-14.688-1.226-3.177-6.406-1.819-5.163 1.4 1.3 3.365 2.081 6.746 2.343 10.269-1.059-.047-2.113.021-3.151.309a7.472 7.472 0 00-2.642 1.321c-.44.288-.817.64-1.137 1.064a2.48 2.48 0 00-.409.341c-2.05-1.064-5.095 1.588-3.507 3.785 2.6 3.601 5.206 7.202 7.806 10.803 1.095 1.521 3.36 3.696 2.956 5.788-.351 1.824-2.584 3.617-3.685 5.043-4.325 5.614-6.301 12.706-5.745 19.746.272 3.408 5.619 3.46 5.347.027-.336-4.199.22-8.367 2.007-12.214 1.714-3.696 5.027-6.28 6.721-9.918 1.646-3.544.325-6.558-1.804-9.53a1963.467 1963.467 0 00-6.715-9.3zm36.894.718c-3.486 5.798-8.257 10.196-14.175 13.436-5.714 3.129-10.788 6.416-12.921 12.921-1.762 5.368-.761 11.659 2.652 16.183-.949.938-1.258 2.453.021 3.606 1.489 1.342 3.439 1.814 4.933 3.02 2.191 1.771.246 4.314-1.185 5.923-2.647 2.983-6.102 5.09-8.434 8.382a11.868 11.868 0 00-1.374 2.48c-.094-4.105-.105-8.21-.005-12.314.084-3.444-5.268-3.47-5.347-.026a250.561 250.561 0 00.21 18.305c.236 4.823.272 9.997 1.614 14.673 1.017 3.538 3.104 7.873 6.93 9.032 3.843 1.163 7.554-1.395 8.367-5.174.723-3.355-4.425-4.813-5.148-1.447-.598 2.789-2.757.797-3.628-.556-.828-1.289-1.273-2.81-1.619-4.288-.734-3.129-.834-6.411-1.028-9.603-.037-.593-.058-1.19-.089-1.783 1.421 2.768 4.377 4.98 7.858 6.317 3.218 1.237 4.634-3.926 1.447-5.148-1.793-.686-4.388-1.75-4.902-3.852-.503-2.05 1.337-4.032 2.627-5.363 2.526-2.616 5.556-4.634 7.726-7.601 1.72-2.354 3.057-5.473 2.202-8.414-.566-1.955-1.824-2.956-3.255-3.79 1.641-1.017 2.982-2.914 3.664-5.289.949-3.313-4.199-4.754-5.148-1.447-1.174 4.1-3.176-.083-3.863-2.044-.765-2.175-.975-4.561-.498-6.825 1.048-4.975 4.66-7.853 8.89-10.18 7.476-4.115 13.63-9.001 18.085-16.408 1.778-2.956-2.83-5.672-4.602-2.721l-.005-.005z" fill="#FFF7D7"/><path d="M283.774 372.768c-5.636-2.448-12.026-2.244-17.021 1.615-5.526 4.261-6.668 10.384-6.265 16.994.242 3.995.084 7.418-2.542 10.631-2.086 2.548-4.833 4.445-7.009 6.899-4.969 5.609-1.787 11.155 4.052 14.237 3.041 1.604 5.772-2.998 2.721-4.602-1.227-.645-2.825-1.264-3.507-2.548-.991-1.877.252-3.093 1.599-4.424 1.468-1.458 3.077-2.763 4.519-4.246 3.124-3.214 5.278-6.815 5.598-11.37.341-4.891-1.358-9.96 1.442-14.416 2.893-4.608 8.707-6.322 13.692-4.157 3.124 1.358 5.871-3.234 2.721-4.603v-.01z" fill="#FFF7D7"/><path d="M308.385 399.948c-5.169-.954-10.033-.613-15.024 1.038-2.794.928-5.499 1.908-8.34.54-2.102-1.012-3.266-2.836-3.821-4.959 3.784 1.033 7.941.461 10.961-2.181 3.465-3.03 4.665-7.522 5.556-11.857.692-3.355-4.455-4.818-5.147-1.447-.818 3.958-1.877 9.708-6.658 10.578-2.128.388-4.366-.45-6.149-1.551-1.137-.703-4.214-4.383-5.52-4.11 3.366-.713 1.966-5.876-1.399-5.163-3.858.817-4.43 5.079-2.401 7.962 1.499 2.134 3.711 4.162 6.123 5.667a2.694 2.694 0 00-.766 2.416c.886 5.416 5.064 9.73 10.542 10.542 3.172.467 6.002-.524 8.98-1.478 3.821-1.227 7.648-1.588 11.611-.86 3.36.619 4.833-4.529 1.447-5.147l.005.01zm-71.947-6.767a92.887 92.887 0 00-10.584 17.356c-1.452 3.098 3.145 5.84 4.602 2.721a92.948 92.948 0 0110.584-17.357c2.102-2.726-2.526-5.415-4.602-2.72zm.702-20.072c-7.685 4.524-12.439 12.271-13.205 21.12-.298 3.428 5.054 3.433 5.347.026.603-6.935 4.566-13 10.537-16.518 2.962-1.745.299-6.379-2.679-4.628zm38.744 35.462c-2.663.178-4.833 1.919-6.72 3.649-2.579 2.364-5.09 4.801-7.633 7.202-2.505 2.37 1.259 6.165 3.764 3.801 1.887-1.783 3.775-3.565 5.667-5.347.765-.724 1.52-1.489 2.317-2.181a9.65 9.65 0 011.725-1.331c.094-.011.178-.032.262-.053-.158 1.866 1.813 3.906 3.978 2.716 4.849-2.674 1.4-8.776-3.36-8.456zm-17.141-26.393c.587-5.185 2.663-10.034 2.846-15.281.121-3.444-5.232-3.465-5.347-.026-.194 5.583-2.527 10.872-2.956 16.465-.43 5.588.367 11.197 2.123 16.507 1.074 3.25 6.248 1.882 5.163-1.399-1.746-5.274-2.458-10.731-1.829-16.266z" fill="#FBB03B"/><path d="M275.785 364.25c-1.861.115-3.497-1.117-4.472-2.726-1.279-2.107-1.641-4.634-2.212-6.993-1.174-4.838-2.993-9.604-6.222-13.456-1.458-1.741-3.224-3.266-5.195-4.388-1.971-1.122-5.237-2.71-6.595-.037-.603 1.19-.608 2.758-.728 4.058a53.253 53.253 0 00-.205 4.041c-.042 2.752.079 5.499.184 8.251.115 3.046.215 6.097.042 9.137-.126 2.27-.215 5.059-1.982 6.731-1.41 1.331.718 3.454 2.128 2.128 1.751-1.651 2.359-3.978 2.648-6.285.325-2.611.34-5.268.293-7.9-.1-5.32-.582-10.657-.11-15.978.052-.623.121-1.242.21-1.86.036-.242.068-.483.125-.719.016-.063.058-.272.079-.262.037.016-.183.158-.183.163 0 0 .933.32 1.106.388.445.183.875.403 1.295.634 1.871 1.033 3.47 2.458 4.833 4.099 3.019 3.638 4.524 8.309 5.572 12.843.608 2.632 1.169 5.436 2.825 7.648 1.547 2.061 3.906 3.649 6.574 3.486.813-.047 1.504-.655 1.504-1.504 0-.776-.686-1.552-1.504-1.505l-.01.006z" fill="#000"/><path d="M250.707 365.057c-3.088.503-6.05 2.029-8.288 4.209-2.71 2.642-4.304 6.223-4.629 9.976-.068.813.739 1.504 1.505 1.504.87 0 1.436-.691 1.504-1.504l.032-.315c0-.047.057-.44.021-.183-.037.257.031-.199.041-.246a14.137 14.137 0 01.703-2.621c.629-1.699 1.746-3.345 3.103-4.629a12.166 12.166 0 012.081-1.573c.608-.367 1.4-.755 1.835-.922a14.519 14.519 0 012.888-.797c.802-.131 1.248-1.127 1.049-1.851-.236-.854-1.043-1.184-1.851-1.048h.006z" fill="#000"/><path d="M242.272 369.743c-8.896 2.48-16.098 9.468-18.677 18.369a27.663 27.663 0 00-1.049 6.547c-.078 1.934 2.93 1.934 3.009 0 .026-.713.089-1.421.173-2.128.032-.273-.058.367.011-.1.015-.1.031-.199.042-.299a27.685 27.685 0 01.466-2.311 23.87 23.87 0 013.109-7.193c2.442-3.784 5.928-6.688 9.98-8.602.226-.105.451-.204.677-.309.073-.032.34-.147.052-.026.094-.042.189-.079.283-.116.362-.146.729-.288 1.101-.414a24.23 24.23 0 011.615-.508c1.861-.519 1.069-3.423-.802-2.899l.01-.011z" fill="#000"/><path d="M233.523 373.444c-4.639-.624-9.189-2.616-12.806-5.577-4.037-3.308-6.611-8.225-11.203-10.867-2.175-1.253-4.917-2.034-7.412-1.368-1.153.309-2.27.996-2.857 2.07-.749 1.374-.403 2.931.299 4.241.655 1.227 1.51 2.364 2.291 3.507.781 1.143 1.62 2.328 2.443 3.486 1.661 2.348 3.339 4.692 4.906 7.103 3.271 5.032 6.076 10.426 7.156 16.381.146.802 1.116 1.253 1.85 1.049.844-.231 1.195-1.049 1.048-1.851-1.934-10.662-8.995-19.201-14.95-27.898-.755-1.101-1.609-2.207-2.207-3.407-.451-.907-.33-1.353.488-1.688.686-.283 1.73-.288 2.621-.105 1.106.22 2.118.661 3.077 1.242 2.102 1.279 3.727 3.182 5.305 5.038 1.578 1.856 3.229 3.759 5.174 5.326 4.272 3.449 9.336 5.593 14.767 6.322.807.11 1.504-.771 1.504-1.505 0-.901-.697-1.394-1.504-1.504l.01.005z" fill="#000"/><path d="M216.555 387.896l-3.859-.235c-1.394-.084-2.804-.247-3.963.713-.891.739-1.273 1.986-1.242 3.113.016.629.157 1.258.33 1.861.074.262.152.524.22.787.037.131.069.262.095.393.021.089.037.178.052.267-.021-.178-.021-.178 0 0 .079.781.635 1.541 1.505 1.505.744-.032 1.588-.666 1.504-1.505-.063-.613-.178-1.2-.346-1.793-.068-.241-.141-.482-.204-.723a5.046 5.046 0 01-.095-.399c-.015-.068-.026-.131-.042-.199-.021-.12-.015-.089.006.1.036-.163-.016-.44-.016-.608 0-.283-.052.225-.016.042.021-.1.037-.199.063-.299 0-.016.058-.236.079-.236-.089.204-.1.236-.032.089l.048-.084c.12-.257-.215.189-.006 0a.983.983 0 01.105-.099c.084-.074.047-.047-.115.089-.026-.053.43-.142.042-.042.042-.011.382-.089.167-.053-.214.037.189 0 .242 0 .104 0 .215 0 .319.006.582.026 1.159.068 1.741.105 1.137.068 2.275.136 3.412.209.787.047 1.541-.728 1.505-1.504-.037-.855-.661-1.452-1.505-1.505l.006.005z" fill="#000"/><path d="M208.854 391.288c-1.117-.393-2.301-.687-3.47-.335-1.169.351-2.019 1.232-2.244 2.39-.488 2.48 1.588 4.624 3.035 6.359 3.04 3.627 6.28 7.082 9.703 10.353 1.4 1.336 3.528-.787 2.128-2.129a127.845 127.845 0 01-8.114-8.492c-1.19-1.368-2.585-2.747-3.465-4.345-.147-.273-.325-.603-.352-.918-.02-.236-.01-.236.048-.288.131-.115.372-.11.623-.084.441.053.892.241 1.306.388.765.273 1.646-.309 1.85-1.048.231-.834-.283-1.578-1.048-1.851z" fill="#000"/><path d="M207.905 401.814a37.277 37.277 0 002.894 11.066c.32.745 1.415.912 2.06.54.77-.451.865-1.31.54-2.06a33.086 33.086 0 01-2.48-9.546c-.084-.807-.634-1.504-1.504-1.504-.75 0-1.589.692-1.505 1.504h-.005z" fill="#000"/><path d="M209.991 408.141c-2.327.844-3.496 3.188-3.36 5.588.137 2.401 1.112 4.907 2.333 7.014.97 1.673 3.57.163 2.6-1.52-.907-1.562-1.651-3.297-1.887-5.116a5.93 5.93 0 01-.026-1.153c.015-.179.042-.32.094-.509.016-.058.21-.566.1-.335.063-.137.131-.262.209-.388.053-.084.105-.163.163-.247-.084.11-.068.1.042-.031.047-.047.456-.367.246-.231.058-.036.535-.257.288-.167.766-.278 1.28-1.023 1.049-1.851-.205-.734-1.085-1.331-1.851-1.048v-.006zm67.927-41.789c1.352-1.783 3.093-3.277 5.022-4.398 1.929-1.122 4.026-1.971 6.138-2.076.975-.047 1.908.042 2.711.514.802.471 1.1 1.053 1.252 1.866.037.204.027.126.032.44 0 .231 0 .461-.032.692-.026.21-.199.865-.346 1.227-.314.765-.875 1.515-1.604 2.091-2.018 1.594-4.749 2.039-7.208 2.495-.728.137-1.179.97-1.079 1.652.115.76.713 1.263 1.478 1.305 4.298.236 8.424 2.831 10.432 6.694 2.007 3.863 1.656 9.273-1.201 12.749-2.794 3.402-7.428 5.027-11.648 3.937-2.495-.645-4.728-2.024-6.762-3.57-1.594-1.211-3.601-2.915-3.538-5.117.057-1.944 2.023-3.653 4.036-3.989 2.511-.419 5.184 1.085 6.998 2.852.802.781 2.223.445 2.516-.666 1.253-4.733-2.248-9.74-7.013-10.521-5.211-.849-9.987 2.37-11.958 7.109-.996 2.395-1.268 5.021-.948 7.59.346 2.768 1.252 5.462 1.436 8.246.162 2.516-.519 4.765-1.976 6.815-1.458 2.049-3.581 3.632-5.73 4.953-1.269.776-2.605 1.431-3.879 2.202-1.274.771-2.411 1.924-2.259 3.486.167 1.766 1.881 2.689 3.166 3.638l4.209 3.108c.655.483 1.678.111 2.06-.54.446-.765.116-1.572-.54-2.06l-3.365-2.484c-.807-.598-1.903-1.3-2.527-1.882.053.052-.084-.026-.015-.121-.021.026.015.095-.011.131.1-.157.147-.209.341-.367.325-.272.797-.498 1.19-.713 1.095-.597 2.191-1.2 3.25-1.855 4.021-2.485 7.963-6.055 8.885-10.914.923-4.86-1.735-9.792-1.316-14.814.341-4.063 2.967-7.79 7.103-8.561 1.977-.367 4.063.2 5.473 1.636 1.41 1.436 1.997 3.339 1.52 5.127l2.516-.666c-2.217-2.155-5.147-3.79-8.303-3.785-2.794.005-5.515 1.494-6.946 3.911-3.48 5.887 3.539 11.118 8.152 13.404 2.647 1.315 5.572 2.044 8.534 1.672 2.962-.372 5.467-1.484 7.69-3.287 4.529-3.675 6.196-10.101 4.513-15.616-1.876-6.149-7.721-10.39-14.069-10.736l.398 2.957c2.768-.519 5.682-1.117 7.989-2.841 2.123-1.594 3.612-4.184 3.392-6.904-.221-2.721-2.27-4.933-5.049-5.368-2.778-.435-5.755.451-8.313 1.688-2.936 1.42-5.421 3.57-7.387 6.159-.492.65-.099 1.683.54 2.06.771.451 1.568.111 2.061-.539l-.011-.016zm-14.625 6.081a78.53 78.53 0 00-4.404-25.807c-.267-.765-1.027-1.274-1.85-1.049-.745.205-1.321 1.08-1.049 1.851a75.947 75.947 0 014.294 25.01c0 1.934 3.014 1.939 3.009 0v-.005z" fill="#000"/><path d="M279.108 362.106c-.802-.865-.76-2.286-.22-3.376.713-1.431 2.123-2.359 3.486-3.093 3.307-1.788 6.987-2.873 10.678-3.518 3.69-.644 7.454-.796 11.192-.681 3.533.105 7.139.356 10.489 1.583 3.245 1.19 5.64 3.528 7.265 6.542 1.73 3.198 2.753 6.909 2.821 10.547.068 3.638-.844 6.993-2.868 9.892-2.023 2.899-5.027 4.503-8.188 5.667-4.125 1.515-8.523 2.395-12.361 4.623-3.349 1.94-6.322 5.101-7.008 9.027-.142.797.215 1.62 1.048 1.85.724.2 1.709-.246 1.851-1.048.608-3.465 3.25-5.976 6.243-7.57 3.564-1.897 7.585-2.673 11.338-4.094 3.754-1.42 7.224-3.48 9.614-6.846 2.254-3.182 3.329-7.145 3.345-11.019.016-4.193-1.122-8.444-3.035-12.166-1.762-3.429-4.461-6.254-8.026-7.801-3.565-1.546-7.575-1.981-11.48-2.154-4.167-.183-8.345-.01-12.466.655-4.02.65-7.978 1.851-11.6 3.722-3.345 1.73-6.521 4.87-5.562 8.98.215.912.687 1.724 1.321 2.406 1.321 1.42 3.444-.708 2.128-2.128h-.005z" fill="#000"/><path d="M298.75 355.401c1.316-.178 2.715.409 3.9.897 1.185.487 2.254.954 3.323 1.535.991.546 1.914 1.169 2.674 2.013.76.844 1.2 1.971 1.415 3.114.897 4.708-1.536 10.002-5.342 12.775-2.248 1.641-4.932 2.611-7.716 2.721-1.929.078-1.939 3.087 0 3.009 6.154-.247 11.931-3.864 14.557-9.489 1.279-2.746 1.924-5.839 1.547-8.869-.205-1.625-.687-3.219-1.662-4.55-.854-1.169-1.945-2.102-3.171-2.868-1.374-.854-2.878-1.478-4.367-2.107-1.945-.818-3.827-1.368-5.95-1.085-.807.11-1.247 1.143-1.048 1.85.241.871 1.043 1.159 1.85 1.049l-.01.005z" fill="#000"/><path d="M297.853 386.261a33.231 33.231 0 0010.102-3.827c3.072-1.782 5.976-4.067 8.172-6.877 2.197-2.81 3.57-6.181 3.722-9.782.152-3.601-.97-6.951-3.281-9.593-2.312-2.642-6.024-4.44-9.667-4.22-.812.047-1.504.656-1.504 1.505 0 .776.686 1.551 1.504 1.504 2.621-.162 5.132.886 7.014 2.773 1.882 1.887 2.93 4.629 2.941 7.386.021 6.385-4.708 11.239-9.839 14.364-3.072 1.871-6.432 3.155-9.96 3.863-.797.162-1.253 1.106-1.049 1.85.231.829 1.054 1.211 1.851 1.049l-.006.005z" fill="#000"/><path d="M319.886 360.947c1.84 4.582.975 9.74-1.599 13.866-2.574 4.125-6.699 7.003-11.066 8.953-2.637 1.179-5.619 1.761-7.942 3.549-.644.493-.985 1.295-.54 2.06.373.634 1.411 1.038 2.061.54 2.175-1.678 4.98-2.27 7.464-3.339 2.485-1.07 4.629-2.291 6.679-3.858 4.345-3.324 7.721-7.953 8.66-13.431.524-3.061.351-6.232-.813-9.136-.304-.755-1.001-1.285-1.85-1.049-.713.199-1.358 1.09-1.049 1.851l-.005-.006z" fill="#000"/><path d="M332.388 374.278c-.655.246-1.111.236-1.635.015a2.993 2.993 0 01-1.437-1.237 2.765 2.765 0 01-.325-1.824 4.094 4.094 0 01.939-1.961c2.458-2.883 6.924-1.808 9.676-.047 2.753 1.762 4.75 4.708 5.578 7.869.828 3.161.325 6.919-1.269 9.986-1.708 3.281-4.429 5.829-7.774 7.396-3.344 1.568-7.344 2.05-11.003 1.484-4.193-.65-8.492-2.915-12.785-1.536-2.008.645-3.617 2.008-5.074 3.481-1.327 1.342-2.569 2.767-4.278 3.632-.749.378-1.635.624-2.479.488-.844-.136-1.531-.629-2.233-1.017-.876-.488-1.783-.917-2.779-1.054-1.08-.147-2.154.042-3.187.378-.964.314-1.908.744-2.914.917-.577.1-1.405.058-2.013-.079-1.479-.335-2.763-1.106-3.728-2.317a5.858 5.858 0 01-.906-1.74c-.577-1.84-3.486-1.054-2.899.802 1.195 3.811 5.053 6.568 9.068 6.385 1.091-.047 2.113-.33 3.13-.697.949-.341 2.008-.834 3.04-.692.897.12 1.694.718 2.469 1.137 1.054.572 2.16.986 3.371 1.012 2.359.047 4.513-1.279 6.217-2.789 1.567-1.389 2.841-3.166 4.634-4.293 1.793-1.127 3.926-1.111 5.981-.687 2.312.477 4.54 1.279 6.883 1.615 4.529.65 9.163.042 13.289-1.971 3.842-1.872 7.056-5.095 8.874-8.969 1.819-3.874 2.333-8.157 1.107-12.225-1.175-3.874-3.769-7.365-7.292-9.409-3.832-2.228-9.415-2.868-12.712.665-1.515 1.625-2.343 3.89-1.824 6.097.466 1.981 2.175 3.648 4.12 4.183.959.262 2.018.252 2.956-.099.761-.284 1.28-1.017 1.049-1.851-.199-.729-1.085-1.337-1.851-1.048h.016z" fill="#000"/><path d="M329.835 395.581c4.645-2.458 10.254-5.997 10.039-12.009-.1-2.721-1.416-5.289-3.596-6.925-2.181-1.635-5.017-2.107-7.58-1.436a8.717 8.717 0 00-5.677 4.749c-1.18 2.516-1.311 5.703.817 7.769 3.471 3.36 11.407 2.799 12.183-2.815.43-3.109-1.725-5.845-4.833-6.175-1.452-.158-3.009.309-4.084 1.31-1.226 1.138-1.698 2.925-.891 4.43.912 1.709 3.512.188 2.6-1.521.042.079-.01-.246-.026-.052 0-.058.037-.178.099-.299.147-.288.357-.466.645-.624.608-.33 1.332-.335 1.982-.136 1.352.42 1.845 1.955 1.42 3.161-.424 1.206-2.002 1.782-3.307 1.814-1.384.031-3.188-.419-4.005-1.615-.981-1.426-.299-3.438.566-4.728.865-1.29 2.401-2.301 4.005-2.506 3.507-.451 6.647 2.302 6.678 5.803.037 4.692-4.969 7.323-8.555 9.216-1.714.907-.194 3.501 1.52 2.6v-.011z" fill="#000"/><path d="M300.333 400.268c2.915-.22 5.415-1.683 7.077-4.079.645-.933 1.153-1.986 2.186-2.552 1.032-.567 2.343-.635 3.502-.635 1.446 0 2.862.21 4.246.624 1.383.414 2.673 1.211 4.083 1.62 1.515.44 3.24.314 4.472-.75 1.079-.933 1.515-2.448 1.242-3.821-.299-1.526-1.588-2.773-3.067-3.172-1.63-.44-3.355.142-4.534 1.311-1.373 1.368.755 3.496 2.128 2.128.289-.288.587-.477.991-.555.278-.058.634 0 .844.099.65.309.891.928.603 1.531-.063.131-.231.293-.477.388-.451.173-.96.073-1.405-.058-1.143-.33-2.181-.959-3.303-1.363-2.338-.839-4.943-1.179-7.417-.907-1.221.137-2.438.388-3.517 1.007-1.08.618-1.83 1.546-2.501 2.558-.619.928-1.19 1.845-2.123 2.495-.933.65-1.94 1.033-3.03 1.117-.812.063-1.504.644-1.504 1.504 0 .765.692 1.567 1.504 1.505v.005zm44.841-10.589a143.045 143.045 0 019.703 4.618c2.82 1.478 5.855 2.936 8.329 4.964 2.475 2.029 3.738 4.425 4.367 7.397.629 2.972.566 6.49.068 9.624a33.708 33.708 0 01-1.206 5.038c-.529 1.641-1.195 3.161-1.667 4.781-.933 3.213-.744 6.516 1.39 9.194 1.824 2.291 4.759 3.381 7.621 2.71 2.899-.681 5.201-3.119 5.368-6.133.105-1.892-.823-3.8-2.484-4.749-1.662-.949-3.733-.797-5.122.55-1.279 1.238-1.677 3.313-.608 4.807 1.069 1.494 2.936 1.992 4.592 1.222.739-.341.923-1.405.54-2.06-.44-.755-1.316-.881-2.06-.54.073-.032-.173-.037-.053-.006-.099-.026-.199-.057-.304-.089.184.058-.041-.042-.068-.057.163.115-.094-.079-.131-.116-.173-.194.089.142-.057-.068-.126-.188.031.247-.074-.147.047.189-.01-.262-.005-.293.094-.577.896-.97 1.567-.724.923.336 1.321 1.311 1.253 2.27-.073 1.012-.571 1.777-1.347 2.396-1.463 1.169-3.528 1.274-5.184.183-1.851-1.216-2.616-3.496-2.365-5.64.163-1.358.645-2.679 1.117-3.958.529-1.452 1.069-2.893 1.468-4.393a35.36 35.36 0 001.195-9.194c-.011-2.721-.33-5.536-1.332-8.083-1.064-2.705-2.778-4.865-5.079-6.621-2.584-1.976-5.557-3.476-8.435-4.975a141.111 141.111 0 00-9.482-4.503c-.745-.32-1.615-.22-2.061.54-.372.634-.209 1.735.54 2.06l.006-.005zm-15.748 16.182a36.964 36.964 0 016.448-6.469c.283-.22.441-.723.441-1.064 0-.367-.163-.807-.441-1.064s-.66-.456-1.064-.44c-.425.021-.729.183-1.064.44a36.76 36.76 0 00-6.448 6.469c-.257.33-.44.629-.44 1.064 0 .367.162.807.44 1.064.54.493 1.615.666 2.128 0z" fill="#000"/><path d="M336.089 399.193c3.837-2.028 8.33-3.234 12.675-2.474 4.016.702 7.517 2.904 9.583 6.458a13.178 13.178 0 011.782 5.929c.042.813.666 1.504 1.505 1.504.786 0 1.541-.686 1.504-1.504-.22-4.519-2.348-8.948-5.887-11.805-4.047-3.266-9.294-4.288-14.368-3.549-2.915.425-5.714 1.468-8.309 2.841-1.714.907-.194 3.502 1.52 2.6h-.005z" fill="#000"/><path d="M345.409 400.666c2.658-.487 5.588.252 7.68 1.977a9.752 9.752 0 013.496 7.113c.063 1.929 3.072 1.94 3.009 0-.115-3.57-1.735-7.103-4.534-9.368-2.946-2.385-6.731-3.302-10.447-2.621-.802.147-1.253 1.117-1.049 1.851.231.839 1.049 1.195 1.851 1.048h-.006zm31.238 35.657c-2.123 1.955-5.352 2.448-7.916 1.09-2.809-1.483-3.947-4.372-4.062-7.423-.137-3.643.645-7.286 1.132-10.882.488-3.596.828-7.391.294-11.103-.535-3.711-1.935-7.171-4.482-9.881-1.332-1.416-3.455.718-2.129 2.128 4.959 5.268 4.126 13.268 3.167 19.82-.572 3.895-1.369 7.9-.808 11.842.493 3.47 2.417 6.663 5.636 8.225 3.769 1.829 8.219 1.132 11.301-1.698 1.431-1.311-.702-3.434-2.128-2.129l-.005.011zm-13.766 48.94c1.887-3.235 2.207-7.292.766-10.757-1.321-3.182-3.927-5.504-6.799-7.292-2.873-1.787-5.929-2.998-8.786-4.702-2.542-1.515-5.085-3.491-6.175-6.343-1.243-3.255-.461-6.904.922-9.986 1.494-3.323 3.722-6.233 5.72-9.263 1.997-3.029 3.8-6.259 4.44-9.839.639-3.58.298-7.202-1.033-10.526-1.484-3.706-4.026-6.815-7.407-8.953-3.318-2.102-7.318-3.172-11.239-2.946-.813.047-1.505.66-1.505 1.504 0 .781.687 1.552 1.505 1.505 6.4-.362 12.576 3.129 15.391 8.916 1.352 2.779 1.871 6.023 1.483 9.09-.435 3.428-2.139 6.505-3.989 9.362-1.851 2.857-4.131 5.814-5.677 9.027-1.547 3.213-2.616 6.951-2.081 10.636 1.011 6.967 7.601 10.254 13.236 13.095 2.967 1.494 6.233 3.192 8.183 5.986 2.065 2.962 2.275 6.836.445 9.971-.98 1.677 1.62 3.192 2.6 1.52v-.005z" fill="#000"/><path d="M344.209 416.413c-3.769-4.786-9.163-8.476-15.176-9.713-3.26-.671-6.631-.676-9.881.063-3.25.739-6.039 2.207-8.581 4.178-2.459 1.903-4.576 4.188-6.506 6.62a92.359 92.359 0 00-5.682 8.005 93.718 93.718 0 00-8.775 17.87c-1.07 2.925-1.94 5.94-3.208 8.791-1.195 2.695-2.758 5.389-5.148 7.203-.645.493-.985 1.295-.54 2.06.372.634 1.405 1.033 2.06.54 4.629-3.518 6.673-8.933 8.498-14.253 2.034-5.929 4.44-11.648 7.548-17.1 3.109-5.452 6.506-10.573 10.82-14.908 2.086-2.097 4.466-3.958 7.202-5.122 2.737-1.164 5.835-1.599 8.838-1.394 6.564.451 12.398 4.204 16.398 9.289.503.639 1.598.524 2.128 0 .629-.629.503-1.489 0-2.129h.005zm-59.571-42.969c-1.672-3.098-5.284-4.225-8.607-4.099a17.931 17.931 0 00-9.106 2.899c-2.689 1.766-4.885 4.246-6.259 7.155-1.467 3.114-1.965 6.443-1.667 9.861.331 3.727 1.526 7.973-.104 11.558-.336.74-.21 1.62.54 2.06.644.378 1.719.205 2.06-.539 1.415-3.119 1.31-6.453.901-9.782-.409-3.329-.817-6.301.063-9.431 1.541-5.467 6.091-9.524 11.653-10.568 2.742-.513 6.438-.361 7.932 2.401.917 1.704 3.517.189 2.6-1.52l-.006.005zm-29.513 31.489a59.054 59.054 0 00-5.42 4.865c-1.704 1.735-3.627 3.517-3.863 5.986-.22 2.296 1.368 4.163 3.135 5.395 1.651 1.148 3.716 1.693 5.048 3.276.524.624 1.588.54 2.128 0 .613-.613.524-1.505 0-2.128-1.263-1.5-3.067-2.249-4.734-3.177-1.211-.676-2.794-1.819-2.574-3.266.121-.781.698-1.478 1.201-2.055a46.979 46.979 0 012.217-2.333 60.67 60.67 0 014.991-4.434c.634-.504.529-1.599 0-2.129-.629-.629-1.489-.508-2.129 0z" fill="#000"/><path d="M251.592 396.305c-3.286 3.821-7.013 7.271-11.128 10.19-4.262 3.02-9.006 5.332-13.037 8.676-3.659 3.035-6.616 7.087-7.214 11.9-.555 4.518 1.128 9.393 4.472 12.512 1.997 1.861 4.713 3.146 7.486 2.59 2.579-.519 4.791-2.852 4.728-5.546-.047-1.934-3.056-1.94-3.009 0 .016.702-.241 1.263-.823 1.808-.508.477-1.3.823-1.94.865-1.923.126-3.648-1.08-4.901-2.427-2.527-2.715-3.648-6.778-2.899-10.384.839-4.026 3.706-7.261 6.873-9.719 3.706-2.878 7.952-4.97 11.778-7.68a65.254 65.254 0 0011.737-10.662c.53-.613.603-1.52 0-2.128-.539-.54-1.593-.619-2.128 0l.005.005z" fill="#000"/><path d="M241.554 393.579a145.674 145.674 0 00-12.162 16.617c-1.032 1.646 1.568 3.156 2.6 1.521a139.97 139.97 0 0111.695-16.01c.525-.618.608-1.52 0-2.128-.54-.54-1.598-.624-2.128 0h-.005zm-9.97.802a54.655 54.655 0 00-6.113 15.821c-.173.791.236 1.625 1.049 1.85.749.205 1.677-.252 1.85-1.048a52.084 52.084 0 015.814-15.103c.969-1.677-1.631-3.197-2.6-1.52zm-14.332 2.469c-.152-.115.073.058.12.1.079.062.158.131.241.194a17.74 17.74 0 011.568 1.483c.713.76 1.09 1.242 1.63 2.055.54.812.97 1.583 1.358 2.422.309.665.65 1.62.896 2.542.205.76 1.08 1.3 1.851 1.049.77-.252 1.268-1.038 1.048-1.851-1.148-4.251-3.711-7.926-7.197-10.589-.629-.477-1.709-.12-2.06.54-.42.797-.131 1.546.54 2.06l.005-.005zm7.444-15.354a1652.8 1652.8 0 00-20.974-23.406c-.55-.597-1.573-.555-2.128 0-.598.598-.551 1.526 0 2.129a1614.174 1614.174 0 0120.973 23.405c.535.608 1.578.551 2.129 0 .608-.608.539-1.515 0-2.128zm5.388 90.672c-1.153 3.072-.021 6.521 2.134 8.854 2.427 2.621 6.002 3.444 9.441 2.851 7.7-1.321 11.705-8.806 13.823-15.579 1.174-3.759 1.945-7.753 3.559-11.344 1.18-2.616 2.999-5.483 5.767-6.416 1.661-.561 3.423-.378 5.147-.357 1.877.021 3.837-.162 5.463-1.19 2.967-1.876 3.91-5.456 4.675-8.665 1.012-4.246 2.019-8.492 3.03-12.738.933-3.921 1.72-7.931 3.203-11.684 1.195-3.025 3.062-5.992 5.772-7.879 1.279-.891 2.689-1.547 4.23-1.809 1.111-.188 2.459-.031 3.685.414 1.007.367 2.071 1.117 2.621 2.013.619 1.007.75 2.249.226 3.471-.525 1.221-1.61 2.191-2.826 2.804-1.394.708-2.967.587-4.524.671-1.903.1-3.784.561-5.1 2.034-1.316 1.473-1.935 3.292-2.632 5.043a74.89 74.89 0 00-3.564 11.711c-.776 3.596-1.117 7.265-1.699 10.856-.477 2.936-1.179 6.117-3.15 8.345-2.302 2.611-5.777 3.266-9.027 3.979-3.25.713-6.469 1.651-8.948 3.916a8.642 8.642 0 00-2.454 3.884c-.56 1.856 2.338 2.653 2.899.802.362-1.195 1.196-2.249 2.212-2.998 1.211-.902 2.553-1.478 3.969-1.924 3.397-1.059 6.998-1.316 10.201-2.988 6.463-3.376 7.045-11.035 7.91-17.44a73.933 73.933 0 012.605-11.8 78.368 78.368 0 012.039-5.777c.546-1.358 1.091-3.161 2.359-4.031 1.269-.87 3.214-.587 4.718-.703 1.746-.125 3.413-.65 4.839-1.687 2.836-2.066 4.408-5.63 2.914-8.996-1.263-2.846-4.361-4.33-7.318-4.634-3.344-.346-6.599 1.201-9.089 3.318-6.018 5.111-7.355 13.535-9.085 20.796-1.012 4.246-2.013 8.497-3.03 12.738-.655 2.741-1.473 6.154-4.524 6.925-1.698.429-3.522.136-5.252.173-1.819.042-3.575.414-5.158 1.342-2.941 1.724-4.807 4.78-6.086 7.847-2.857 6.851-3.245 15.17-8.477 20.853-2.181 2.369-5.242 4.031-8.534 3.889-2.804-.12-5.263-1.944-6.117-4.508-.425-1.274-.43-2.327.042-3.591.288-.76-.32-1.651-1.049-1.85-.844-.231-1.562.288-1.85 1.048l.01.011z" fill="#000"/><path d="M273.085 410.778c.162-.985.891-1.588 1.918-1.819 1.211-.272 2.742.252 3.942.776.567.246 1.19.509 1.678.902.33.267.545.498.508 1.011-.042.593-.325 1.185-.566 1.725-.314.702-.65 1.394-1.001 2.081-1.352 2.663-2.862 5.237-3.979 8.015-.534 1.332-.964 2.71-1.19 4.131-.277 1.709-.262 3.407-.209 5.137.052 1.73.084 3.444-.378 5.122a10.372 10.372 0 01-.828 2.102c-.204.393-.435.77-.681 1.137-.084.121-.168.247-.257.362-.053.079-.11.152-.173.22-.252.247-.121.22.393-.089l.76.204c.183.079.173.305.147.126 0 .011-.147-.377-.226-.519a2.597 2.597 0 00-1.069-1.069c-.404-.215-.823-.294-1.269-.356-.194-.027-.393-.048-.587-.069-.257-.031.189.042-.057-.01-.074-.016-.21-.079-.284-.068-.162.015.011-.047.042.01 0 0 .394.399.289.414-.021 0 .068-.409.078-.445.121-.493.289-.97.462-1.447.356-.954.775-1.887 1.106-2.852.723-2.128.702-4.157-.257-6.206-.404-.86-.923-1.662-1.153-2.595-.231-.933-.142-1.835.084-2.721.571-2.222 2.07-4.052 3.491-5.792.513-.629.613-1.51 0-2.129-.53-.529-1.61-.634-2.129 0-1.929 2.365-3.957 4.886-4.445 8-.236 1.531-.141 3.051.456 4.492.524 1.264 1.479 2.48 1.494 3.895.037 2.752-2.222 5.054-2.201 7.795.005.876.44 1.73 1.2 2.181.587.351 1.227.409 1.892.487.037 0 .294.042.063 0 .095.016.199.053.294.058.278.026.047.026-.063-.058-.126-.094-.005-.11-.011.058 0-.241.09.215.116.278.057.131.115.257.188.377.205.325.483.577.818.755 1.751.944 3.062-1.174 3.801-2.432a13.61 13.61 0 001.604-4.168c.624-3.119-.1-6.28.382-9.399.425-2.71 1.599-5.21 2.863-7.622.665-1.273 1.357-2.526 2.007-3.805.65-1.279 1.437-2.7 1.798-4.131.451-1.777-.078-3.444-1.525-4.566-1.232-.959-2.841-1.609-4.335-2.029-1.709-.477-3.518-.503-5.137.273-1.369.655-2.527 1.934-2.779 3.465-.131.802.21 1.62 1.049 1.85.718.2 1.719-.246 1.85-1.048l.016.005zm-5.426-3.234c-2.049 5.321-4.592 11.758-10.353 14.007-1.536.597-3.161.922-4.744 1.363-1.583.44-2.977.99-4.356 1.745-2.6 1.426-4.833 3.476-6.521 5.913-2.071 2.993-3.182 6.611-3.297 10.243-.063 1.935 2.946 1.935 3.009 0 .183-5.85 3.58-11.144 8.785-13.797 2.784-1.42 5.971-1.677 8.823-2.941 2.741-1.211 4.943-3.349 6.683-5.745 2.191-3.014 3.539-6.542 4.865-9.986.294-.76-.325-1.651-1.048-1.85-.85-.236-1.557.288-1.851 1.048h.005zm-59.35 142.589c-1.541 11.228 2.102 22.709 9.556 31.211 3.884 4.43 8.754 7.743 14.18 10.002 6.044 2.516 12.539 3.654 19.007 4.414 7.009.823 14.065 1.337 21.094 1.918 7.449.619 14.904 1.169 22.368 1.536 14.558.724 29.298.902 43.798-.77 12.565-1.452 25.135-4.875 34.707-13.561 8.891-8.068 14.337-19.26 18.054-30.499 4.487-13.577 6.841-27.772 8.744-41.905.959-7.129 1.855-14.274 2.678-21.424s1.473-14.174 1.61-21.298c.262-13.436-1.536-26.908-7.224-39.19-4.912-10.605-12.408-20.056-21.618-27.243a74.911 74.911 0 00-7.098-4.917c-1.656-1.007-3.171 1.593-1.52 2.6 9.64 5.866 17.781 14.054 23.668 23.673 6.511 10.631 9.808 22.651 10.584 35.048.875 13.908-.949 27.81-2.658 41.58-1.735 13.965-3.565 27.967-7.009 41.633-2.914 11.59-6.904 23.238-14.101 32.925-3.412 4.587-7.627 8.602-12.518 11.58-5.247 3.192-11.103 5.19-17.084 6.49-5.981 1.3-12.539 1.939-18.866 2.317-7.25.429-14.52.524-21.781.393-14.552-.268-29.067-1.458-43.556-2.721-12.376-1.08-25.89-1.635-36.579-8.733-8.812-5.856-14.699-16.041-15.668-26.546-.236-2.558-.221-5.158.125-7.706.11-.812-.194-1.604-1.048-1.85-.703-.199-1.74.246-1.851 1.048l.006-.005z" fill="#000"/><path d="M245.449 80.183a20.76 20.76 0 014.178-4.047c1.567-1.132 8.964-6.49 15.941-3.381 5.462 2.437 7.166 8.502 7.459 9.64a23.142 23.142 0 016.275-2.999c2.448-.739 6.5-1.96 10.767-.503 4.597 1.567 8.796 6.028 9.509 11.758.776 6.201-2.726 12.387-8.686 15.15l.173 4.948a76.23 76.23 0 00-18.284-6.269 76.494 76.494 0 00-25.56-.876c1.567-5.672 3.129-11.349 4.696-17.02a9.358 9.358 0 00-1.221-2.559c-1.714-2.521-4.199-3.502-5.247-3.842z" fill="#FFCE00"/><path d="M163.93 342.763c7.082 3.632 13.314 4.843 18.389 5.792 8.969 1.677 25.895 3.402 47.409-3.496 13.493 1.289 26.986 2.579 40.474 3.873a170.62 170.62 0 0121.262 23.411 170.84 170.84 0 0118.137 30.168 95.568 95.568 0 0116.796-.314 95.6 95.6 0 0123.474 4.639c14.489-16.518 28.134-26.928 37.585-33.198 8.597-5.703 14.531-8.508 20.722-10.458 10.998-3.465 20.717-3.559 27.075-3.113a779.14 779.14 0 01-33.816-34.797c-16.623-18.201-25.094-27.563-32.894-40.542-6.579-10.94-13.614-25.665-18.321-44.594-7.082-11.937-18.714-28.853-36.726-45.596-12.387-11.511-22.698-21.099-38.702-27.919-21.702-9.247-24.371-.839-83.186-5.688-17.037-1.405-28.14-3.045-43.378 1.562-8.629 2.611-21.435 6.48-29.587 17.257-2.573 3.402-9.016 13.226-1.069 65.809 4.147 27.416 6.39 41.486 14.851 59.324 13.257 27.951 27.704 35.929 31.499 37.88h.006z" fill="#FFAC99"/><path d="M157.162 308.909c1.3-1.714.294-4.471-2.223-9.844-5.268-11.244-7.899-16.864-11.999-21.807-7.108-8.566-9.965-7.643-14.111-14.819-1.038-1.799-3.329-6.128-4.844-15.344-1.877-11.412-.902-20.255.336-30.823a2946.647 2946.647 0 014.523-36.668 603.76 603.76 0 0029.193 25.098 602.735 602.735 0 0024.119 18.458 164.813 164.813 0 0128.459-19.532c26.53-14.369 51.692-18.515 68.173-19.726 4.288 8.807 10.725 25.859 5.84 44.468-4.398 16.759-16.722 30.001-18.494 31.872-4.131 4.356-9.41 8.864-17.299 18.452-9.352 11.36-10.023 14.861-8.969 16.979 1.787 3.586 8.728 3.591 11.711 3.46-6.134 16.9-11.517 21.545-15.538 22.284-.582.105-1.787.251-3.03 1.122-4.277 2.988-4.12 11.129-2.427 16.397.414 1.284 2.375 7.638 8.477 10.95 4.571 2.48 9.404 2.05 18.887 1.091a113.705 113.705 0 0012.921-2.06c10.102 1.347 18.327.629 23.778-.226 9.174-1.436 20.811-3.26 29.183-12.156 3.119-3.313 4.749-7.114 8.015-14.715 8.335-19.421 5.415-25.188 11.354-41.171 6.071-16.344 10.794-16.177 13.839-29.261 2.805-12.041 1.253-22.724-.44-29.764.032-.121.084-.304.142-.53 1.494-5.572 5.357-19.972 7.317-34.183 2.312-16.727 3.838-27.558-.933-40.165a55.002 55.002 0 00-5.745-11.129 162.295 162.295 0 01-18.567 9.316 48.192 48.192 0 006.605-11.213c.812-1.945 6.605-15.805 2.149-19.553-2.034-1.709-4.508.105-12.287 1.719-2.323.483-15.333 3.067-28.412.068-2.26-.518-1.206-.44-11.145-3.963-13.331-4.723-19.998-7.087-26.787-8.371-4.681-.886-11.737-1.782-20.711-1.232-.147-2.443-.032-5.871 1.305-9.603 1.379-3.859 3.208-5.672 2.48-7.722-.787-2.196-3.943-3.03-6.789-3.56-11.297-2.09-20.606-.115-20.606-.115-19.941 4.23-29.912 6.349-34.179 8.807-4.885 2.81-13.079 8.466-20.355 19.16.2-1.112.43-3.24-.739-4.22-1.536-1.29-4.628.136-6.222.896-11.774 5.625-17.661 8.435-22.279 12.544-12.565 11.177-19.175 24.995-22.137 32.255-1.326.456-3.491 1.384-5.457 3.329-2.217 2.196-3.124 4.639-3.596 6.049-7.501 22.383-7.48 40.159-7.48 40.159-.016 3.717.173 14.002 2.453 27.427 2.878 16.932 7.999 32.212 8.812 34.613 1.803 5.321 6.468 18.426 6.982 28.81.257 5.132.068 8.44.068 8.44-.246 4.346-.796 6.338-1.027 11.522 0 0-.252 2.962-.063 5.85.833 12.875 6.951 22.211 10.274 27.154 2.281 3.947 8.12 14.075 18.882 19.244.1.047 2.648.959 7.748 2.778 4.765 1.704 7.203 2.579 8.382 1.672 1.567-1.205 1.421-3.926 1.248-5.31 13.21 12.251 21.246 17.341 24.103 15.27.98-.708 1.352-2.259 1.116-4.655 2.993 7.355 10.427 11.056 16.513 9.279 6.379-1.867 8.523-8.949 8.665-9.452 1.132 3.664 2.925 4.739 3.711 5.101 4.22 1.929 11.674-2.118 17.226-11.265.859 2.039 2.311 4.408 4.765 5.346 5.305 2.034 11.899-3.873 17.754-9.121 3.895-3.486 9.116-8.875 14.075-16.669l-34.304-16.109a8153.97 8153.97 0 01-5.991-7.476c-.126-.068-.31-.167-.535-.277-3.255-1.625-6.049-1.494-7.905-1.673-1.976-.188-1.379-.581-7.722-3.024-6.117-2.359-9.199-3.512-10.3-2.459-.388.372-1.363 1.735 1.101 7.067-2.632-4.771-7.696-7.675-13.079-7.502-7.994.262-11.957 7.177-12.141 7.507 1.51-3.591 1.059-4.964.498-5.578-3.187-3.512-17.985 8.833-28.553 4.32-3.313-1.416-5.353-4.021-5.353-4.021-2.379-3.04-2.736-6.406-2.799-7.957.771.251 8.167 2.626 10.406-.331l-.016.021z" fill="#453B2F"/><path d="M124.326 231.971a44.254 44.254 0 0116.187 2.789 44.171 44.171 0 0113.404 7.958c-.094.838-.969 7.674-7.092 11.338-5.399 3.235-11.727 2.123-15.842-.466-4.005-2.522-5.614-6.249-6.29-7.874-2.605-6.269-.949-12.015-.378-13.745h.011zm109.312 12.686a108.675 108.675 0 0117.373-7.48 108.973 108.973 0 0121.392-4.755c1.112 1.175 2.81 3.334 3.376 6.385 1.054 5.688-2.626 10.301-4.597 12.775-5.478 6.872-13.1 8.476-14.227 8.697-2.086.409-12.68 2.474-19.118-4.661-3.611-3.999-4.109-8.89-4.193-10.955l-.006-.006z" fill="#fff"/><path d="M356.062 257.831c7.38 18.551 15.946 32.238 22.567 41.433 10.269 14.274 20.915 24.711 37.685 41.318a599.058 599.058 0 0020.292 19.191c-2.05-.011-4.1-.016-6.154-.026a566.775 566.775 0 01-14.972-13.404c-8.895-8.256-17.534-16.272-26.871-26.792-8.125-9.158-15.741-17.708-23.4-30.703a155.19 155.19 0 01-12.062-25.545c.97-1.824 1.94-3.653 2.904-5.478l.011.006z" fill="#FFE3DE"/><path d="M318.686 340.461c-2.307 2.422-5.353 6.411-6.254 11.826-1.384 8.304 3.439 15.349 8.78 23.301 4.43 6.6 6.647 9.897 9.462 11.533 11.931 6.93 27.699-6.521 58.706-17.404 19.034-6.678 29.455-8.361 29.539-8.088.131.43-25.351 4.02-45.58 22.179-8.948 8.031-14.51 16.801-17.949 23.427-8.219.34-17.026.398-26.351.036a324.31 324.31 0 01-18.652-1.258 184.026 184.026 0 00-37.989-56.619c2.778.901 6.941 1.945 12.046 1.997 6.296.068 10.925-1.394 16.848-3.323a98.414 98.414 0 0017.394-7.612v.005z" fill="#E58373"/><path opacity=".11" d="M234.011 245.638a69.775 69.775 0 0121.041-10.112 69.63 69.63 0 0118.232-2.69 17.359 17.359 0 011.804 5.536c.644 4.409-.603 7.942-1.316 9.588-.383-1.08-1.154-2.726-2.747-3.979-1.52-1.195-3.407-1.735-7.685-1.677-3.596.052-8.403.524-14.762 2.516-6.531 2.044-8.083 3.622-8.848 4.56-1.609 1.971-2.197 4.136-2.443 5.594-1.09-3.114-2.186-6.228-3.276-9.336zm-110.55-13.876c.482-.551 2.437-2.28 13.288 1.777 4.404 1.646 10.39 4.288 17.126 8.607.016 1.043-.105 2.805-1.027 4.687a9.905 9.905 0 01-1.332 2.034 14.79 14.79 0 00-1.688-2.941c-.623-.839-2.804-3.596-8.906-5.95-5.588-2.16-8.959-3.46-12.146-1.787-2.982 1.567-4.12 4.859-4.524 6.311a29.703 29.703 0 01-1.242-6.076c-.351-3.606-.54-5.525.456-6.662h-.005z" fill="#000"/><path opacity=".72" d="M345.661 114.618c-.98.063-.949 3.554-2.401 7.459-1.567 4.22-4.068 6.768-6.951 9.708-4.45 4.54-8.838 6.904-13.189 9.205-3.009 1.594-5.541 2.621-10.615 4.676-8.896 3.612-9.766 3.434-13.074 4.949-11.391 5.21-17.959 14.992-17.566 15.422.241.267 3.245-2.967 9.96-7.045 7.276-4.419 13.205-6.369 14.599-6.815 4.891-1.562 6.668-1.421 12.587-2.605 4.576-.918 11.102-2.527 18.923-5.52a82.904 82.904 0 006.784-11.852c3.433-7.355 3.632-10.642 3.087-13.321-.398-1.96-1.337-4.319-2.154-4.267l.01.006zm-95.929-30.572c-1.777-.708-6.076 6.19-7.701 8.807-2.296 3.69-5.127 8.922-7.543 15.757a57.677 57.677 0 0113.409-5.944 54.01 54.01 0 002.364-11.784c.288-3.319.556-6.406-.529-6.836zm106.466 51.88a203.969 203.969 0 011.017 34.158c-1.363 25.062-7.664 45.8-8.298 47.87-4.456 14.657-10.516 28.244-8.047 29.618 1.52.844 4.938-3.664 6.065-2.873 1.714 1.206-5.514 12.073-10.484 26.913-2.527 7.533-1.656 7.7-4.781 20.517-4.833 19.847-7.05 29.932-12.402 36.123-3.539 4.094-14.112 14.788-30.085 16.628a41.94 41.94 0 01-8.701.084 16.454 16.454 0 001.908-3.648 16.408 16.408 0 001.032-5.29c-.351.331-2.862 2.674-3.213 2.999l-9.829 9.168a64.597 64.597 0 0010.961 1.478c10.243.493 18.085-1.598 21.037-2.474 6.191-1.84 15.065-4.477 22.147-12.272 3.486-3.837 5.033-7.27 7.633-13.168 6.72-15.264 4.629-21.031 10.521-37.213 3.05-8.377 3.328-6.044 8.481-18.861 6.956-17.288 7.648-24.501 7.701-29.14a53.426 53.426 0 00-2.134-15.438 392.009 392.009 0 002.852-12.209c2.941-13.556 4.775-22.709 5.473-34.713.456-7.868-.425-2.784-1.201-22.232-.094-2.374-.241-6.369-2.668-10.494-1.578-2.679-3.559-4.461-4.99-5.541l.005.01zm-194.9 233.686c.776-1.074-8.261-7.024-18.756-19.568-7.176-8.576-12.796-15.438-15.516-25.917-2.218-8.529-2.281-17.975-2.281-17.975-.115-7.36.729-9.016.063-13.708-.964-6.815-3.978-12.015-6.311-15.286 2.233 6.736 2.616 12.188 2.584 15.821-.073 8.13-2.547 11.459-2.354 20.418.121 5.561 1.159 9.713 1.867 12.465 3.26 12.707 9.787 21.126 12.303 24.14 5.263 6.306 10.447 9.892 14.221 12.471 5.615 3.826 13.478 8.12 14.18 7.145v-.006z" fill="#261E1B"/><path d="M354.662 135.858c-.231-.256-3.533 3.146-8.629 6.244-8.067 4.917-12.502 4.136-27.017 7.47-12.424 2.851-20.643 4.828-28.863 10.987a48.753 48.753 0 00-9.142 8.985 87.89 87.89 0 0111.973-7.837c4.309-2.343 8.66-4.707 14.683-6.076 4.791-1.09 5.604-.408 11.543-1.079 5.069-.577 13.1-1.484 21.209-5.95 9.038-4.98 14.557-12.387 14.238-12.744h.005zm-142.154-11.217c-.278-.383 3.239-3.597 6.647-6.212 4.392-3.371 20.501-15.737 41.878-15.428 7.439.105 16.476 3.004 34.556 8.791 10.426 3.339 14.012 5.096 21.042 5.908 11.647 1.347 21.503-1.195 27.929-3.502-2.83 1.872-7.255 4.341-13.079 5.803-9.173 2.302-16.785.844-23.825-.587-10.772-2.186-10.877-4.241-24.077-7.679-7.49-1.95-13.461-3.507-21.539-3.696-4.089-.094-14.772.016-27.254 4.692-13.136 4.922-21.843 12.502-22.278 11.904v.006zm-42.954-15.145c6.637-9.404 13.887-14.877 18.62-17.875 16.099-10.201 32.553-10.468 41.753-10.5a93.65 93.65 0 0120.172 2.123c-4.844 0-12.115.22-20.853 1.39-13.425 1.792-26.667 3.559-39.961 11.82-5.027 3.124-12.869 8.922-20.229 19.196-.015-.707-.141-3.957-2.243-5.116-1.264-.697-2.695-.341-3.497-.11-9.771 2.805-15.071 7.585-15.071 7.585-8.235 7.434-15.369 13.871-22.63 26.179-2.867 4.86-6.468 11.852-9.461 20.853a59.36 59.36 0 012.767-16.313c.76-2.391 4.592-13.855 16.031-25.419 12.512-12.644 30.917-22.153 34.435-18.441.87.917.786 2.605.167 4.634v-.006zm-14.871 200.582c.561-.089.424-3.653.33-5.043-.241-3.564-1.143-6.363-2.212-9.1-1.803-4.629-3.366-8.633-6.663-13.142-1.116-1.52-4.214-4.55-10.411-10.604-4.476-4.372-6.903-6.605-8.743-10.72-1.091-2.438-1.51-4.498-1.788-6.071-1.934-10.893-2.427-28.826-2.532-33.187-1.945 6.238-3.737 15.322-2.306 25.927.833 6.17 1.73 12.801 6.463 19.071 3.245 4.293 5.022 4.094 11.297 10.898 2.909 3.156 6.316 6.851 9.273 12.02 5.871 10.274 6.359 20.103 7.292 19.957v-.006zm84.502-13.692c-.561-.204.256-4.912 2.117-9.179 2.805-6.448 7.271-10.269 9.336-12.072 7.905-6.899 17.603-16.502 22.735-23.259 3.45-4.54 7.79-11.69 10.542-22.394-.765 12.256-4.697 20.03-7.622 24.443-2.794 4.22-6.285 7.832-12.738 14.5a767.006 767.006 0 01-11.019 11.108c-4.87 4.812-6.893 6.683-9.315 10.358-2.474 3.753-3.575 6.668-4.031 6.5l-.005-.005zM129.253 178.623c-.361.425 10.27 10.243 20.261 18.882a552.656 552.656 0 0031.971 25.66 184.61 184.61 0 0135.966-22.782c23.269-11.202 44.641-15.443 59.676-17.142-14.741.425-38.194 3.125-63.456 15.501-12.858 6.296-23.075 13.582-30.828 20.088a1217.477 1217.477 0 01-28.643-21.22c-15.443-11.795-24.616-19.38-24.947-18.992v.005z" fill="#726556"/><path d="M124.106 212.393c.304-2.768.639-5.573 1.006-8.409a407.35 407.35 0 013.947-24.422 383.623 383.623 0 0028.103 25.161 385.69 385.69 0 0025.723 19.129c9.477-8.555 25.109-20.565 47.131-29.277a155.81 155.81 0 0146.644-10.547 38.337 38.337 0 014.015 7.066c3.198 7.339 3.413 14.122 3.167 18.3a87.083 87.083 0 00-9.835-20.47 154.967 154.967 0 00-43.923 10.573c-22.624 9.111-38.524 21.749-48.085 30.692a284.586 284.586 0 01-50.009-42.791 150.324 150.324 0 00-3.062 8.021 149.297 149.297 0 00-4.828 16.974h.006zm-.87 33.428c1.038 1.709 3.307 4.907 7.407 7.161 1.646.907 7.553 4.151 14.048 1.766 8.183-3.004 9.997-12.271 10.086-12.748.252 1.373.965 6.159-1.819 10.961-2.61 4.508-6.673 6.243-8.419 6.956-8.408 3.444-16.46-.624-17.833-1.347-1.159-4.252-2.312-8.503-3.47-12.749zm109.17-.162c.425 1.619 2.569 9.152 10.034 13.514 10.536 6.164 21.686.183 22.242-.126-.482 1.227-1.431 3.135-3.287 4.854a13.004 13.004 0 01-2.375 1.74c-1.761.42-8.686 1.846-15.637-2.06-9.933-5.583-10.914-17-10.977-17.922zm-74.033 54.826a138.57 138.57 0 0138.099-4.807 138.735 138.735 0 0137.167 5.604 395.35 395.35 0 00-36.994-2.191 395.085 395.085 0 00-38.272 1.394z" fill="#E58373"/><path d="M158.132 298.53a199.1 199.1 0 0137.711-3.287 199.377 199.377 0 0138.561 4.089 118.107 118.107 0 00-39.116-6.741 118.121 118.121 0 00-37.156 5.939z" fill="#FFE3DE"/><path d="M250.743 88.575l-2.846 14.091a88.827 88.827 0 0117.713.162 88.89 88.89 0 0124.742 6.422c-.639-2.716-1.279-5.426-1.913-8.141-1.31.252-3.276.561-5.677.666-4.676.204-13.173.582-19.71-4.76-1.589-1.3-4.98-4.503-6.82-10.683-1.83.75-3.659 1.494-5.489 2.243z" fill="#EF9300"/><path opacity=".84" d="M265.332 88.297c.372-.906 3.785-.346 5.483.058 5.772 1.379 10.935 5.551 10.369 6.794-.503 1.111-5.677.01-9.383-1.683-3.277-1.5-6.894-4.136-6.469-5.169z" fill="#fff"/><path d="M274.741 85.252c.32-.755.787-1.625 1.463-2.516 1.782-2.339 4.026-3.45 5.284-3.953a12.46 12.46 0 00.073 4.67c.923 4.394 4.54 9.31 10.039 10.196 4.45.719 7.963-1.562 8.927-2.238.121 1.049.456 5.074-2.202 8.985-2.448 3.601-5.902 4.844-6.966 5.179-.97-3.182-3.151-8.744-8.136-13.918a34.215 34.215 0 00-8.482-6.405z" fill="#EF9300"/><path opacity=".84" d="M287.013 81.97c.372-.54 2.275.147 3.151.55 2.663 1.227 4.738 3.864 4.267 4.561-.394.577-2.532-.168-3.843-.901-2.238-1.253-4.021-3.565-3.575-4.21zm-27.694-7.166c.22-.618 2.233-.45 3.182-.288 2.894.487 5.583 2.49 5.305 3.287-.231.655-2.49.498-3.942.13-2.49-.623-4.812-2.39-4.55-3.129h.005z" fill="#fff"/><path d="M250.324 76.141c-.226.33-.524.886-.435 1.51.194 1.31 1.992 2.007 2.825 2.327 4.325 1.678 16.838.315 18.866.09.137 1.42.273 2.835.404 4.256a39.472 39.472 0 00-8.178-.891 39.549 39.549 0 00-12.02 1.834 12.836 12.836 0 00-2.909-3.224 12.986 12.986 0 00-1.84-1.2c1.096-1.567 2.186-3.14 3.282-4.707l.005.005z" fill="#EF9300"/><path d="M250.041 74.301a481.237 481.237 0 017.926-56.813c6.264-31.201 9.394-46.802 19.165-63.728 6.222-10.778 24.732-42.854 61.106-51.603 6.039-1.452 25.802-5.918 47.011 3.004 18.18 7.648 28.328 21.309 36.05 31.693a123.604 123.604 0 0116.297 29.79c9.515-1.855 32.601-4.942 57.165 6.501 7.627 3.554 23.458 11.181 34.236 28.611 7.396 11.957 10.484 25.634 9.682 50.665-1.033 32.123-7.743 59.859-19.202 93.78-7.831 23.191-19.469 53.962-36.542 89.277 10.835-41.144 20.297-73.194 26.619-93.948 11.045-36.243 18.856-58.794 13.923-89.204-3.418-21.073-10.814-32.951-16.077-39.604-4.681-5.918-19.579-24.747-43.184-25.921-8.534-.425-15.564 1.588-20.062 3.307a483.574 483.574 0 016.715 89.015 460.369 460.369 0 00-9.147-54.417 460.887 460.887 0 00-8.55-31.814 185.582 185.582 0 00-40.925 15.883c-4.529 2.412-18.609 10.149-45.039 33.072-13.016 11.292-29.744 26.882-47.96 47.037-.566-1.808-2.217-6.212-6.621-9.283a16.485 16.485 0 00-4.691-2.27 680.967 680.967 0 0122.399-23.747c24.575-24.826 44.799-45.003 74.238-62.433 9.299-5.509 23.044-12.827 40.94-19.474a69.047 69.047 0 00-7.307-14.788c-11.485-17.56-27.851-24.842-33.345-27.2-7.26-3.12-30.435-13.064-52.939-3.088-9.635 4.272-15.145 10.421-21.833 18.053-3.885 4.435-21.052 24.622-33.031 66.6-4.251 14.893-8.864 36.087-9.912 62.235a17.35 17.35 0 00-8.136-1.882c-4.429.073-7.632 1.845-8.974 2.694h.005z" fill="#D2B990"/><path opacity=".56" d="M250.822 74.443a453.714 453.714 0 014.587-43.62c3.999-25.99 6.599-42.895 15.438-62.585 6.206-13.828 14.164-31.567 32.705-46.56 6.589-5.33 33.344-26.965 65.94-21 16.764 3.068 28.978 12.32 32.616 15.14 9.645 7.47 15.254 15.422 20.108 22.31a135.406 135.406 0 0115.37 28.527l-3.172 1.479a144.032 144.032 0 00-9.933-19.15c-6.605-10.683-13.614-22.011-26.142-30.949-5.851-4.172-23.312-15.249-46.838-13.461-18.987 1.441-31.835 10.494-39.221 15.7-15.999 11.27-24.161 24.68-28.517 32.013-7.68 12.916-11.087 24.35-13.975 35.489C264.86 6.773 258.8 35.08 255.257 72.094c-1.479.786-2.962 1.568-4.44 2.354l.005-.005z" fill="#fff"/><path d="M267.251 72.477a303.579 303.579 0 016.709-45.549c4.184-18.525 8.278-36.678 19.836-57.017 10.857-19.113 20.984-36.936 41.921-44.207 21.964-7.627 42.298 1.06 48.316 3.628 26.834 11.464 38.173 34.713 40.946 40.862l5.782-.85c-3.02-6.668-8.613-16.863-18.588-26.666-4.907-4.823-16.791-16.219-35.956-21.35-7.962-2.134-33.848-7.644-56.514 6.793-11.921 7.59-17.65 17.325-27.264 33.66-3.077 5.22-10.254 18.037-17.467 40.515-5.132 15.988-11.082 39.357-13.309 68.902 1.866.424 3.732.854 5.603 1.279h-.015z" fill="#B59261"/><path opacity=".56" d="M289.099 77.735a280.267 280.267 0 0115.894-19.606c9.478-10.667 20.318-21.214 36.82-34.581 29.471-23.873 44.202-35.809 66.816-44.914 14.431-5.814 31.552-12.492 54.475-11.077 11.26.697 34.666 2.144 53.364 20.046 14.631 14.012 19.013 31.059 20.502 37.166 1.756 7.208 2.527 14.83 1.457 31.017-2.028 30.776-8.198 54.46-10.18 61.835-10.295 38.304-23.138 66.716-23.683 66.512-.567-.21 11.778-31.421 22.976-77.672 2.773-11.459 4.66-20.465 6.012-31.552 2.721-22.3 4.404-36.112-.734-52.683-1.667-5.367-8.948-28.668-29.56-40.861-9.661-5.714-20.701-8.173-23.662-8.812-1.877-.404-8.671-1.809-17.514-1.977-27.269-.513-50.439 11.171-60.467 16.356C388.295-6.18 379.064.755 374.55 4.204c-30.577 23.364-55.545 46.728-82.431 74.16-.388.398-.703.718-.891.912l-2.129-1.536v-.005z" fill="#fff"/><path d="M296.454 81.808a521.609 521.609 0 0145.59-42.901C368.061 17.205 384.956 3.345 410.72-6.82c23.768-9.372 47.237-18.63 72.378-8.356 28.217 11.528 39.462 40.632 42.413 49.559 6.642 20.087 4 37.638 2.207 48.122-10.427 60.844-34.142 126.774-45.286 156.266 14.358-58.628 24.16-92.161 31.3-112.448 1.431-4.073 7.077-19.888 9.624-41.375 1.211-10.217 2.26-19.69.273-32.129-.791-4.943-3.58-19.893-13.755-36.207-5.557-8.916-9.808-15.731-18.311-21.246-12.622-8.188-25.974-7.7-36.086-7.548-9.829.146-21.036 2.028-39.195 9.839-15.715 6.757-33.643 16.675-58.8 36.789-15.233 12.182-35.284 29.832-56.609 53.82-1.473-2.15-2.941-4.299-4.414-6.453l-.005-.005z" fill="#B59261"/><path d="M152.858 320.798c.074-.388 2.962.514 7.67.089 3.119-.278 6.605-1.363 13.445-3.522 4.692-1.479 6.569-2.186 7.974-1.138 1.41 1.054 1.53 3.255 1.452 4.755.236-.378 3.842-5.955 10.693-6.034 6.983-.079 10.731 5.625 10.941 5.955a9.412 9.412 0 01.639-2.265c.157-.372 1.206-2.856 2.794-3.632 1.793-.876 3.989.555 6.495 1.918 2.705 1.473 9.551 5.195 15.469 5.3 1.924.031 4.834-.299 8.44-2.27-4.204 3.638-8.178 4.346-9.902 4.529-4.11.441-7.638-.802-9.195-1.368-5.221-1.897-6.689-4.487-9.184-3.827-1.174.31-2.799 1.4-4.12 5.337a21.175 21.175 0 00-6.222-3.559c-1.39-.504-4.378-1.557-8.189-1.238-5.315.446-8.979 3.287-10.421 4.551-.146-.803-.597-2.648-2.128-3.539-1.311-.765-2.784-.451-3.591-.267-6.149 1.394-9.084 2.563-11.548 2.972-6.055 1.001-11.606-2.207-11.501-2.757l-.011.01z" fill="#726556"/><path opacity=".72" d="M165.02 358.164a47.569 47.569 0 008.66 8.361c5.153 3.837 5.677 2.584 10.688 5.913.409.272 1.285.865 2.391.765 2.013-.178 3.334-2.5 3.863-3.575a38.78 38.78 0 004.65 3.743c4.157 2.846 7.292 4.996 10.82 4.655 5.504-.53 8.717-6.789 9.178-7.711.719.65 1.935 1.572 3.649 2.097 3.03.922 5.64 0 7.124-.535 6.453-2.296 9.692-8.796 10.452-10.416 1.217 1.756 3.649 4.65 7.35 5.394 4.629.928 8.759-1.997 12.376-4.922 5.2-4.199 13.887-12.057 24.077-25.545a405.427 405.427 0 01-15.254 21.33c-2.469 3.229-11.103 14.332-18.772 15.448-.807.121-2.653.362-4.597-.524-3.282-1.499-4.414-5.111-4.697-6.138-1.232 2.27-3.623 5.798-7.858 8.282-2.191 1.29-5.038 2.962-8.587 2.291-2.584-.487-4.356-1.997-5.221-2.862-2.238 4.996-6.044 8.628-10.064 8.665-3.072.026-5.803-2.06-8.618-4.215a29.37 29.37 0 01-4.896-4.749c-.519.823-1.479 2.039-3.041 2.632-1.552.592-3.255.393-6.348-.944-3.953-1.709-6.825-3.837-12.838-8.602a575.236 575.236 0 01-4.199-3.355l-.298-5.494.01.011z" fill="#261E1B"/><path d="M235.274 358.845c.168 3.198.503 6.537 1.704 9.53.844 2.097 2.144 4.157 4.272 5.127 2.343 1.069 4.943.687 7.255-.267 3.454-1.426 6.469-3.759 9.268-6.197 4.01-3.486 7.648-7.391 11.134-11.391 5.525-6.327 10.673-12.979 15.674-19.725.482-.656.11-1.678-.54-2.061-.766-.445-1.573-.115-2.06.54-4.299 5.798-8.718 11.512-13.394 17.016-3.522 4.141-7.181 8.199-11.171 11.9a75.255 75.255 0 01-2.379 2.117c-.362.304-.724.608-1.091.902-.194.157-.388.309-.582.461-.319.257.247-.183-.078.063a10.09 10.09 0 01-.283.215c-1.316.991-2.69 1.919-4.147 2.689a20.28 20.28 0 01-.886.441c-.157.073-.314.141-.472.209.467-.215-.094.037-.214.084-.556.215-1.128.393-1.709.519-.137.032-.273.053-.415.079-.403.078.137-.005 0 0-.262.021-.518.052-.781.052-.262 0-.492-.021-.739-.031-.351-.016.388.084.042.005-.136-.031-.272-.047-.403-.084-.247-.058-.477-.157-.719-.231-.241-.073.43.226.1.042-.094-.052-.194-.094-.288-.146a5.059 5.059 0 01-.645-.415c.304.226-.204-.193-.294-.283a6.328 6.328 0 01-.555-.623c.22.277-.032-.053-.063-.095-.095-.147-.194-.288-.283-.435a8.994 8.994 0 01-.393-.713c-.31-.613-.399-.859-.64-1.599a19.717 19.717 0 01-.571-2.186c-.383-1.813-.551-3.658-.65-5.509-.042-.812-.661-1.504-1.505-1.504-.781 0-1.546.686-1.504 1.504h.005zm14.641-59.833c-1.918 5.311-4.22 10.616-7.569 15.197-.147.199-.289.393-.441.587.131-.173-.22.273-.293.362-.325.398-.656.786-1.002 1.164a22.245 22.245 0 01-1.85 1.808c-.141.121-.283.241-.425.357l-.251.204c.272-.215.115-.084.052-.042-.314.225-.629.456-.954.671-.555.362-1.137.687-1.74.965-.095.042-.587.235-.115.057a11.35 11.35 0 01-.394.152 12.11 12.11 0 01-1.667.493c-.12.026-.246.052-.367.073-.047.011-.094.016-.146.027-.278.047.089 0-.241.036-2.438.283-4.545-.178-6.873-.996-4.214-1.483-8.115-4.261-12.403-5.902-1.813-.692-3.926-1.096-5.713-.11-2.752 1.509-2.931 5.158-2.616 7.91.089.807.624 1.504 1.504 1.504.745 0 1.594-.692 1.505-1.504-.137-1.206-.205-2.558.052-3.622.116-.467.278-.912.477-1.175.084-.11.194-.199.289-.304.188-.204-.21.132.036-.041.152-.105.315-.184.477-.273-.398.215.021.005.152-.026.084-.021.189-.026.273-.058-.299.11-.252.021-.121.016.163 0 .32-.021.483-.016.146 0 .728.084.314.011.87.157 1.699.424 2.516.76-.257-.105-.036-.016.011.005.126.052.251.11.377.168l.645.298c.498.236.985.488 1.473.74 1.006.524 2.008 1.064 3.009 1.588 2.244 1.174 4.534 2.301 6.94 3.093 3.748 1.237 7.706 1.41 11.355-.184 2.972-1.3 5.43-3.627 7.412-6.154 3.958-5.048 6.558-11.04 8.723-17.031.278-.766-.31-1.646-1.049-1.851-.833-.23-1.572.283-1.85 1.049l.005-.006z" fill="#000"/><path d="M271.601 351.129c11.501 2.055 23.338.98 34.304-3.009 6.396-2.328 12.466-5.593 17.629-10.06 3.319-2.867 6.317-6.259 8.168-10.274 1.572-3.413 2.348-7.061 3.04-10.731.928-4.948 1.866-9.886 3.213-14.746 2.076-7.48 4.891-14.745 8.167-21.775 2.758-5.913 6.018-11.569 8.812-17.461 2.532-5.347 4.231-10.872 4.965-16.749.943-7.564.508-15.275-1.049-22.729a78.813 78.813 0 00-.98-4.115c-.393-1.479-2.464-1.379-2.899 0-1.604 5.043-3.213 10.08-4.77 15.139-.341 1.106-1.651 3.737-.577 4.775.53.514 1.19.509 1.824.236.975-.419 1.353-2.783 1.631-3.648a625.19 625.19 0 002.332-7.46c1.746-5.672 3.481-11.349 5.059-17.073 3.507-12.717 5.069-25.948 5.169-39.127.057-7.831-.283-15.794-1.358-23.558-.435-3.155-1.007-6.363-2.238-9.32-.918-2.196-2.338-4.545-4.781-5.232-3.014-.849-5.667 1.809-7.952 3.345-3.182 2.139-6.563 3.968-10.128 5.389-3.743 1.488-7.612 2.642-11.47 3.784-3.858 1.143-7.564 2.244-11.485 2.711-4.77.566-9.782.471-14.196 2.663-5.85 2.904-11.317 6.788-16.575 10.63-2.018 1.479-4 2.994-5.965 4.535-.645.508-.519 1.593 0 2.128.623.64 1.494.498 2.128 0 6.102-4.802 12.481-9.352 19.223-13.226a49.87 49.87 0 012.6-1.415c.283-.141.566-.278.859-.409-.435.194-.131.042-.021.011.378-.105.755-.231 1.133-.336a37.08 37.08 0 017.307-1.268c2.841-.21 5.651-.525 8.44-1.133 4.251-.928 8.439-2.269 12.586-3.585 3.465-1.101 6.899-2.333 10.18-3.911 3.282-1.578 6.526-3.748 9.661-5.887.514-.351 1.043-.728 1.615-.99.361-.163.671-.247.98-.21.692.084 1.305.561 1.892 1.321 1.489 1.929 2.144 4.828 2.642 7.25 1.395 6.788 1.662 13.896 1.856 20.805.367 13.305-.771 26.672-3.827 39.636-1.31 5.572-3.019 11.055-4.67 16.528-1.442 4.765-2.863 9.546-4.446 14.274-.078.236-.167.472-.241.713-.021.063-.063.131-.073.199.016-.157.314-.608.618-.739l1.825.236c.183.178.576 1.164.398 1.368.031-.037.032-.142.047-.184.074-.209.121-.429.184-.644.283-.97.582-1.94.88-2.904 1.51-4.886 3.062-9.756 4.613-14.626h-2.898c3.323 12.476 3.632 26.273-1.332 38.362-2.223 5.409-5.232 10.473-7.847 15.694-3.528 7.046-6.658 14.327-9.116 21.818-1.741 5.31-3.067 10.725-4.11 16.208-.713 3.754-1.269 7.58-2.443 11.229-2.983 9.299-11.91 15.846-20.659 19.851-10.274 4.703-21.859 6.6-33.082 5.368a60.14 60.14 0 01-3.979-.582c-1.893-.34-2.705 2.559-.802 2.899l-.011.011z" fill="#000"/><path d="M337.594 146.594c4.655-4.655 8.025-10.321 10.285-16.481 1.037-2.831 1.824-5.756 2.164-8.759.257-2.265.263-4.886-.948-6.904-1.143-1.908-3.093-2.579-5.211-2.186-1.001.183-1.96.561-2.915.912-1.357.503-2.71 1.007-4.088 1.442-3.659 1.153-7.434 1.861-11.266 2.018-3.449.141-6.903-.126-10.311-.613-3.407-.488-6.888-1.012-10.248-1.872a45.689 45.689 0 01-4.052-1.237 41.635 41.635 0 01-3.365-1.368c-2.391-1.075-4.739-2.228-7.156-3.245-2.93-1.232-5.934-2.244-8.985-3.145-12.843-3.785-26.603-5.61-39.677-1.824-11.144 3.229-21.015 9.938-29.104 18.148a84.9 84.9 0 00-2.128 2.238c-1.31 1.426.813 3.554 2.128 2.128 7.067-7.69 15.491-14.237 25.298-18.048 6.49-2.527 13.336-3.701 20.298-3.57 6.468.12 12.869 1.237 19.107 2.904 5.247 1.4 10.358 3.135 15.254 5.41 2.254 1.048 4.498 2.128 6.826 3.009 2.804 1.064 5.713 1.803 8.659 2.343 6.852 1.248 13.86 2.301 20.822 1.478a48.63 48.63 0 0010.652-2.516c1.179-.419 2.343-.886 3.528-1.284a12.24 12.24 0 011.31-.372c.105-.021.215-.037.325-.063.341-.084-.257.015-.042 0a6.29 6.29 0 01.629-.016c.404 0-.23-.115.137.026.073.026.178.063.256.079.278.052-.256-.184-.031-.005.073.057.498.366.173.083.183.163.356.325.514.519-.241-.288.063.121.125.231.058.1.1.199.153.299.178.32-.074-.205.005.016.162.461.283.922.361 1.404.074.441-.026-.309.016.147.016.142.026.283.037.425.016.246.026.493.026.744.005.645-.026 1.284-.089 1.924-.115 1.185-.393 2.595-.723 3.9-1.521 6.028-4.309 11.926-8.288 16.722a41.344 41.344 0 01-2.59 2.836c-1.368 1.374.755 3.502 2.129 2.128v-.005z" fill="#000"/><path d="M248.788 102.031c1.059-4.14 2.217-8.25 3.386-12.36.435-1.531 1.127-3.329.629-4.928-1.027-3.318-5.32-4.288-8.293-4.733-4.246-.645-8.56-.624-12.843-.462-4.282.163-8.371.336-12.544.713-8.959.808-17.823 2.6-25.99 6.474-8.891 4.215-16.528 10.793-22.347 18.699a62.31 62.31 0 00-1.358 1.923c-.44.65-.125 1.667.54 2.061.745.435 1.599.136 2.06-.54 4.954-7.287 11.654-13.588 19.454-17.912 7.8-4.325 15.967-6.364 24.438-7.36 4.052-.477 8.131-.724 12.209-.902 4.325-.189 8.665-.393 12.985-.068.403.031.807.063 1.21.105.179.015.352.036.53.057.1.01.194.021.293.037.021 0 .493.063.168.021.65.09 1.305.2 1.95.336.551.115 1.096.251 1.631.414.214.068.429.136.644.215.105.036.21.078.315.115.288.11.162.094.042.016.283.194.645.304.943.482.131.079.257.168.388.257.341.225-.272-.262.063.052.168.157.32.351.488.503-.079-.068-.215-.33-.037-.031.047.079.089.157.136.23.047.074.168.373.026.043-.141-.33 0-.01.021.078.021.09.037.2.074.283.078.194-.011-.414-.026-.199 0 .063.01.126.01.189 0 .115-.01.23-.016.346-.005.32-.01-.168.027-.163 0 0-.042.268-.048.288-.073.388-.167.771-.267 1.154-.97 3.69-2.091 7.344-3.067 11.034a459.13 459.13 0 00-.712 2.737c-.483 1.876 2.421 2.678 2.898.802l-.01-.006z" fill="#000"/><path d="M170.86 109.769c.665-1.667 1.106-3.879-.357-5.274-.728-.692-1.719-.938-2.694-1.001-2.134-.136-4.383.608-6.364 1.305-3.753 1.327-7.391 3.056-10.888 4.954-6.379 3.47-12.172 7.958-17.288 13.105-5.116 5.148-9.226 10.233-12.377 16.418-3.653 7.177-5.755 15.056-6.285 23.086a62.889 62.889 0 00-.105 2.213c-.057 1.934 2.952 1.934 3.009 0 .215-7.014 1.657-14.002 4.435-20.486 2.778-6.485 6.783-12.178 11.632-17.242 4.823-5.037 10.096-9.54 16.093-13.126 3.114-1.861 6.38-3.486 9.714-4.911.262-.111-.11.047.152-.063.152-.063.299-.126.451-.184.277-.115.561-.225.838-.335a49.754 49.754 0 011.678-.619 26.98 26.98 0 013.119-.902c.241-.052.482-.094.723-.136.178-.031.283-.037.026-.01.121-.016.242-.027.362-.042.404-.037.802-.026 1.206-.016.288.005-.136-.037-.074-.01.069.026.158.031.231.047.073.015.142.042.215.057.288.069.021.048-.031-.021.031.042.131.063.173.1.214.157-.173-.121-.095-.079a.467.467 0 01.136.137c.048.094-.073-.084-.073-.089-.058-.074.047.068.053.125.01.142-.001.582-.063.86-.11.456-.268.902-.441 1.337-.304.755.331 1.651 1.049 1.85.854.236 1.546-.293 1.85-1.048h-.01zm36.846 211.485c-2.773-3.852-7.061-6.94-11.831-7.648-4.771-.707-9.106 1.625-12.345 4.98a22.284 22.284 0 00-2.532 3.119l2.6 1.52c.839-1.934 1.751-4.309.88-6.39-.482-1.153-1.483-1.965-2.699-2.243-2.695-.624-5.709.508-8.235 1.342-3.455 1.143-6.862 2.432-10.401 3.292-.886.215-1.782.403-2.684.55-.215.037-.43.068-.644.095.277-.037-.294.031-.383.041-.44.048-.886.079-1.332.1-.859.037-1.714.005-2.563-.084-.063-.005-.293-.047.011 0-.084-.016-.173-.026-.257-.042-.215-.042-.425-.078-.635-.126a10 10 0 01-1.106-.314l-.298-.11-.179-.068c.147.063.168.073.068.026a9 9 0 01-1.703-.975c-1.001-.771-1.73-1.714-2.333-2.799-.603-1.085-.991-2.155-1.31-3.371a24.291 24.291 0 01-.388-1.735 20.001 20.001 0 01-.242-1.599c-.094-.807-.623-1.504-1.504-1.504-.739 0-1.599.691-1.504 1.504.539 4.644 1.981 9.572 6.07 12.308 2.872 1.924 6.521 2.15 9.855 1.72 3.753-.488 7.355-1.651 10.919-2.873 1.594-.545 3.177-1.106 4.786-1.599a38.064 38.064 0 012.139-.592c.314-.073.634-.142.949-.204.131-.027.267-.048.403-.069.425-.073-.23.011.179-.021.309-.026.618-.052.927-.047.137 0 .273.011.404.016.451.026-.267-.079.089.01.115.032.231.058.346.09.042.01.089.036.131.041.215.037-.283-.178-.11-.047.079.058.194.116.283.158-.283-.194.32.152 0 0 .042.031.074.083.11.115.199.157-.063-.157-.068-.094 0 .052.178.309.21.361-.184-.314-.042-.057.016.147.015.063.026.131.036.199-.078-.403-.01-.057-.01.042-.016.592-.016.692-.121 1.169a12.328 12.328 0 01-.687 2.06c-.325.745-.22 1.615.54 2.06.76.446 1.61.142 2.061-.54.172-.262.356-.513.545-.765.241-.33-.173.205.057-.073.095-.116.184-.231.278-.346.215-.262.435-.519.666-.771 1.2-1.331 2.364-2.369 3.785-3.234 1.656-1.012 3.402-1.62 5.331-1.578 2.196.052 4.099.839 5.908 1.871a15.308 15.308 0 013.103 2.328 17.506 17.506 0 011.352 1.473c.032.037.283.351.179.22-.105-.131.047.063.073.1.079.104.157.215.236.325.472.66 1.31.975 2.06.54.65-.383 1.017-1.395.54-2.061h-.021z" fill="#000"/><path d="M118.769 150.631c-.938-.76-2.317-1.468-3.58-1.096-1.111.325-2.254 1.735-2.951 2.605-1.725 2.139-2.784 4.671-3.79 7.203-2.296 5.792-4.037 11.8-5.279 17.907-2.223 10.919-2.915 22.132-2.359 33.25.661 13.221 3.271 26.106 6.909 38.797 2.799 9.766 6.558 19.249 9.158 29.072 1.033 3.89 1.829 7.858 2.002 11.884.147 3.402-.367 6.704-.676 10.08-.98 10.642-.037 21.87 3.276 32.066 2.852 8.77 8.383 16.544 14.867 23.013 5.452 5.436 11.878 10.452 19.081 13.335 2.254.902 4.812 1.667 7.26 1.264 2.448-.404 3.853-2.464 4.1-4.928.23-2.317-.294-4.712-.855-6.951-.472-1.876-3.376-1.08-2.899.802.477 1.882 1.064 4.341.718 6.301-.12.687-.178.787-.44 1.227-.199.325.184-.252-.026.037a1.215 1.215 0 01-.136.141c-.074.068-.331.246.021 0-.1.068-.205.136-.31.199-.052.032-.11.058-.167.084-.294.152.325-.105 0-.005-.179.052-.362.1-.54.147-.095.021-.357.052.026.005-.11.016-.226.026-.341.031-.241.011-.482.016-.723.011-.703-.026-.603-.021-1.222-.142a16.84 16.84 0 01-1.829-.466c-6.437-2.003-12.319-6.49-17.247-10.988-6.4-5.839-12.072-12.926-15.364-20.999-1.667-4.079-2.674-8.424-3.413-12.759a82.432 82.432 0 01-1.095-17.378c.141-3.391.707-6.725.912-10.106.241-3.937-.173-7.89-.923-11.758-1.714-8.797-5.032-17.226-7.774-25.728-3.931-12.22-7.27-24.822-8.654-37.612-1.038-9.604-1.18-19.317-.252-28.936a116.347 116.347 0 012.936-17.121c1.41-5.625 3.061-11.386 5.713-16.497.525-1.006 1.112-1.992 1.861-2.841.331-.377.85-.713 1.122-1.122l.247-.209c-.378.031-.394.047-.042.047.183.115.351.094.55.257 1.489 1.211 3.633-.907 2.128-2.129v.006z" fill="#000"/><path d="M145.247 310.267c2.663.608 5.352 1.221 8.057 1.583.734.1 1.515.204 2.233-.026.928-.299 1.541-1.127 1.84-2.013.624-1.845.105-4.089-.336-5.913-.44-1.824-1.016-3.56-1.661-5.295-1.856-4.99-3.733-10.054-6.469-14.641a39.497 39.497 0 00-4.964-6.636c-1.882-2.029-4.157-3.9-6.427-5.641-2.023-1.557-3.989-3.155-5.63-5.132-1.908-2.301-3.392-5.006-4.419-7.81-1.981-5.431-2.936-11.255-3.434-17-.697-8.084-.272-16.02.561-24.067 1.222-11.82 3.062-23.578 5.394-35.231.231-1.143.462-2.286.703-3.424l-2.516.666a487.56 487.56 0 0041.763 36.742 512.531 512.531 0 0011.638 8.848c.555.409 1.357.173 1.824-.236a167.223 167.223 0 0133.958-22.933c13.136-6.689 27.164-11.575 41.596-14.589a168.246 168.246 0 0118.163-2.768l-1.3-.744c4.246 8.025 6.899 16.932 7.591 26.011.707 9.268-.074 18.861-3.387 27.594a46.63 46.63 0 01-7.328 12.722c-3.061 3.775-6.574 7.234-10.012 10.689-3.843 3.863-7.869 7.549-11.643 11.475-4.105 4.272-7.984 8.99-11.097 14.038-2.213 3.58-4.661 9.074-.572 12.319 2.878 2.28 7.114 2.411 10.621 2.181.461-.032.917-.069 1.373-.121.807-.089 1.505-.629 1.505-1.504 0-.745-.692-1.594-1.505-1.505-2.936.325-6.055.414-8.78-.629-1.311-.503-2.391-1.473-2.448-2.904-.084-2.139 1.163-4.293 2.254-6.086 5.876-9.677 14.41-17.094 22.31-25.036 3.428-3.449 6.919-6.878 9.996-10.647 3.078-3.769 5.62-7.926 7.512-12.429 3.612-8.586 4.66-17.943 4.367-27.19-.315-9.866-2.794-19.59-7.119-28.454a75.556 75.556 0 00-1.043-2.045c-.225-.429-.802-.791-1.3-.744-12.282 1.195-24.433 3.654-36.186 7.428-15.008 4.823-29.345 11.742-42.434 20.528a173.777 173.777 0 00-17.226 13.215l1.824-.236a485.177 485.177 0 01-52.787-45.118c-.765-.755-2.275-.472-2.516.666a396.363 396.363 0 00-5.52 33.376c-.991 8.198-1.845 16.381-1.567 24.643.188 5.645.775 11.317 2.018 16.832 1.31 5.834 3.418 11.433 7.381 16.009 1.703 1.971 3.748 3.554 5.802 5.132 2.165 1.657 4.236 3.413 6.081 5.431 3.476 3.795 5.934 8.345 7.89 13.079 1.667 4.021 3.412 8.178 4.366 12.445.22.98.362 1.703.372 2.678 0 .199-.005.404-.015.603 0 .058-.042.299.005.016-.016.084-.026.173-.053.257-.026.084-.11.456-.073.278.047-.221-.047.057-.047.068.026.173.037-.241.016-.016-.016.162-.1 0 .068-.047-.283.078.141-.053.157-.053-.335.074.241.068 0 .006-.278-.069-.802-.037-.975-.058-1.111-.142-2.542-.456-3.759-.697-1.3-.262-2.6-.535-3.894-.829-1.888-.429-2.69 2.47-.802 2.899l.005-.01zm166.886 94.179c-4.241-7.208-8.518-14.4-13.005-21.456-4.802-7.543-9.761-15.018-15.192-22.121-3.224-4.22-6.731-8.12-10.484-11.874-1.373-1.368-3.496.755-2.128 2.129 3.271 3.271 6.4 6.636 9.252 10.279a176.66 176.66 0 011.966 2.574 183.627 183.627 0 012.217 3.03 315.808 315.808 0 014.189 5.981 394.306 394.306 0 0110.012 15.386 940.363 940.363 0 0110.573 17.582c.98 1.666 3.58.157 2.6-1.521v.011zm42.283-144.618c2.914 7.496 6.353 14.793 10.415 21.739 4.157 7.108 8.954 13.807 14.065 20.255 5.111 6.448 10.951 13.152 16.696 19.49a540.633 540.633 0 0016.706 17.587 554.013 554.013 0 0023.532 22.31c.603.54 1.531.598 2.128 0 .551-.55.608-1.583 0-2.128a557.902 557.902 0 01-21.068-19.852 535.09 535.09 0 01-17.084-17.76c-5.614-6.112-11.113-12.34-16.365-18.772-5.253-6.432-10.091-12.958-14.39-19.951-4.298-6.993-7.81-14.022-10.83-21.445-.304-.755-.608-1.51-.901-2.27-.294-.76-1.012-1.279-1.851-1.048-.723.199-1.347 1.09-1.048 1.85l-.005-.005z" fill="#000"/><path d="M233.89 246.66a78.644 78.644 0 0132.008-12.387 77.07 77.07 0 017.853-.745l-1.452-1.106c1.242 3.649 1.729 7.24 1.226 11.108a17.983 17.983 0 01-2.862 7.654c-1.059 1.572-2.778 3.318-4.298 4.419a23.536 23.536 0 01-2.905 1.787 19.65 19.65 0 01-2.867 1.232 24.332 24.332 0 01-6.395 1.326c-2.212.147-4.32.016-6.291-.408a21.067 21.067 0 01-3.061-.907l-.357-.142c-.456-.189.132.058-.136-.058a12.894 12.894 0 01-.692-.325 16.731 16.731 0 01-1.399-.765c-1.175-.713-1.914-1.295-2.915-2.322a15.94 15.94 0 01-2.548-3.497c-1.095-2.007-1.787-4.225-2.207-6.563-.141-.802-1.116-1.252-1.85-1.048-.844.231-1.195 1.048-1.048 1.85.922 5.148 3.386 10.008 7.616 13.2 3.764 2.846 8.613 4.068 13.278 4.052 10.348-.031 20.911-6.17 23.469-16.68 1.169-4.807.739-10.039-.844-14.704-.204-.608-.765-1.138-1.452-1.106-11.852.54-23.521 3.664-34.031 9.173a80.266 80.266 0 00-7.344 4.367c-.677.451-.97 1.326-.54 2.06.393.671 1.378.991 2.06.54l-.016-.005zm-78.83-5.457a40.593 40.593 0 00-24.119-11.024 39.604 39.604 0 00-6.783-.058c-.723.058-1.195.44-1.452 1.106-.388 1.017-.624 2.108-.813 3.182-.356 2.071-.498 4.183-.298 6.285.44 4.661 2.38 9.169 5.965 12.267 5.698 4.927 14.909 6.217 21.215 1.641 3.874-2.81 5.939-7.292 6.673-11.931.126-.802-.205-1.62-1.049-1.851-.712-.194-1.724.241-1.85 1.049-.561 3.564-1.829 7.076-4.582 9.545-1.027.923-2.568 1.798-3.852 2.239-1.662.571-2.915.755-4.592.755-3.266 0-6.443-1.028-9.19-3.057a13.043 13.043 0 01-.77-.629 17.536 17.536 0 01-1.002-.964 11.785 11.785 0 01-1.515-1.919c-1.216-1.887-1.971-4.01-2.332-6.222-.179-1.101-.226-2.228-.205-3.339.011-.561.042-1.122.095-1.678.052-.555.063-.66.146-1.174.189-1.143.43-2.312.85-3.397l-1.452 1.106a37.65 37.65 0 0125.015 7.04c.419.304.755.556 1.027.776a40.253 40.253 0 012.736 2.385c1.4 1.337 3.534-.786 2.129-2.128l.005-.005zm3.843 59.723a173.511 173.511 0 0127.358-3.539c10.673-.524 21.414-.089 32.003 1.353 4.964.676 9.897 1.572 14.787 2.668.792.178 1.631-.241 1.851-1.049.21-.754-.257-1.672-1.049-1.85a178.715 178.715 0 00-28.82-4.047 176.075 176.075 0 00-32.092 1.08 181.903 181.903 0 00-14.835 2.485c-.797.167-1.258 1.101-1.049 1.85.226.823 1.054 1.222 1.851 1.049h-.005zm134.06-190.57c-.33-7.48-3.507-14.5-9.079-19.532-5.573-5.032-12.723-7.894-20.093-8.078-4.566-.115-9.048.912-13.2 2.789-.739.335-.917 1.41-.54 2.06.446.76 1.316.875 2.061.54 6.746-3.056 14.352-3.072 21.219-.388 5.562 2.175 10.479 6.201 13.457 11.396 1.96 3.423 2.993 7.281 3.171 11.213.037.813.666 1.504 1.505 1.504.786 0 1.541-.686 1.504-1.504h-.005z" fill="#000"/><path d="M291.385 107.703c6.296-2.474 11.045-8.523 10.704-15.464-.209-4.309-2.165-8.518-5.41-11.386a15.995 15.995 0 00-12.811-3.837c-4.964.692-9.389 3.764-11.842 8.125-.949 1.688 1.646 3.209 2.6 1.52a13.286 13.286 0 018.555-6.468c3.633-.865 7.439-.105 10.547 2.123 1.431 1.028 2.663 2.448 3.554 3.979.477.817.792 1.499 1.085 2.343a14.893 14.893 0 01.629 2.558c.247 1.892.105 3.586-.445 5.342-.498 1.583-1.415 3.124-2.464 4.298a16.075 16.075 0 01-2.123 1.976c.246-.193-.094.069-.115.084l-.462.331c-.288.199-.581.388-.88.566-.472.283-.954.55-1.447.786-.168.079-.336.152-.498.231-.241.12.398-.158.147-.063l-.126.047c-.755.299-1.284 1.006-1.048 1.85.199.719 1.09 1.348 1.85 1.049v.01z" fill="#000"/><path d="M246.943 82.101c1.531-4.728 5.934-8.24 10.851-8.9 4.173-.562 9.352.906 12.078 4.476.765 1.001 1.336 2.301 1.562 3.664.246 1.489.047 2.894-.32 4.32-.477 1.876 2.422 2.678 2.899.802.812-3.209.697-6.595-1.022-9.504-1.416-2.385-3.691-4.204-6.212-5.316-5.399-2.38-11.811-2.028-16.67 1.458-2.846 2.039-4.996 4.854-6.075 8.198-.252.77.293 1.641 1.048 1.85.812.226 1.599-.272 1.85-1.048h.011zm5.976 175.268c-5.819.75-10.757-3.37-11.155-8.088-.462-5.447 5.263-10.086 10.615-9.572 3.633.351 7.423 3.108 8.12 7.182.765 4.476-2.412 9.267-7.58 10.478z" fill="#000"/><path d="M254.602 247.095c-1.61-1.358-1.914-3.89-.834-5.635 1.452-2.349 5.116-2.805 7.014-.928 1.347 1.331 1.557 3.591.629 5.205-1.305 2.281-4.749 3.088-6.809 1.353v.005z" fill="#fff"/><path d="M137.148 253.873c5.798.886 10.83-3.114 11.344-7.821.587-5.436-5.027-10.207-10.39-9.819-3.643.268-7.491 2.931-8.288 6.988-.87 4.456 2.191 9.32 7.334 10.652z" fill="#000"/><path d="M135.706 243.562c1.641-1.321 2.003-3.843.97-5.614-1.394-2.38-5.048-2.925-6.993-1.091-1.378 1.3-1.641 3.554-.749 5.19 1.252 2.312 4.676 3.198 6.772 1.51v.005z" fill="#fff"/><path d="M300.826 89.157c14.159-16.219 29.549-31.353 46.099-45.129 15.296-12.733 30.896-25.25 48.373-34.912 9.714-5.368 19.915-9.818 30.514-13.11 5.767-1.788 11.632-3.166 17.535-4.44 5.902-1.274 11.863-2.412 17.907-2.627 10.526-.372 20.664 2.464 29.088 8.839 8.424 6.374 14.704 14.672 19.852 23.515 5.147 8.844 8.943 18.101 11.333 27.883.792 3.234 1.373 6.442 1.672 9.451.865 8.676-.052 17.446-1.462 26.011-2.627 15.947-6.799 31.652-11.066 47.221-6.207 22.677-12.959 45.213-19.946 67.659-4.199 13.477-8.676 26.876-12.733 40.401-.441 1.478-.886 2.956-1.258 4.45-.205.823-.488 1.761-.446 2.616.079 1.656 1.877 2.28 3.014 1.08 1.043-1.101 1.683-2.721 2.338-4.063 3.145-6.432 5.866-13.079 8.602-19.689 4.173-10.065 8.188-20.192 12.13-30.346 8.498-21.886 16.728-43.902 24.082-66.197 4.378-13.268 8.556-26.692 11.318-40.406 1.526-7.553 2.453-15.186 2.679-22.892.576-20.134 1.462-41.774-8.036-60.205-2.537-4.922-5.772-9.687-9.74-13.582-2.679-2.632-5.625-4.99-8.67-7.182-12.157-8.743-26.483-14.457-41.229-16.916-10.752-1.793-21.812-2.013-32.616-.545-10.804 1.468-21.11 4.839-30.886 9.583-9.777 4.744-18.814 10.573-27.72 16.633-8.482 5.771-16.917 11.653-25.12 17.817a413.916 413.916 0 00-45.957 40.186 433.374 433.374 0 00-24.449 26.991c-1.232 1.479.886 3.617 2.128 2.129 14.924-17.928 31.274-34.671 48.945-49.905 14.872-12.817 30.75-24.318 47-35.32 8.749-5.924 17.708-11.638 27.254-16.21 9.849-4.717 20.376-7.988 31.248-9.204 18.803-2.102 38.298.707 55.434 8.848 8.33 3.958 16.492 9.09 22.997 15.7 11.873 12.068 15.69 29.43 16.471 45.769.43 9.021.23 18.1-.126 27.127a122.333 122.333 0 01-.828 10.26c-1.274 10.226-4 20.868-6.92 30.964-5.572 19.296-12.35 38.246-19.306 57.081-7.795 21.109-15.889 42.13-24.607 62.878-2.385 5.677-4.707 11.454-7.595 16.901-.315.587-.635 1.169-1.012 1.719-.121.178.241-.115-.1.089.902-.556 1.793-.157 2.234.613 0 0 .12.483.041.1-.089-.414-.01-.021 0-.094.084-.456.179-.907.289-1.358.901-3.696 2.112-7.329 3.255-10.951 2.06-6.552 4.168-13.089 6.238-19.637 6.684-21.104 13.147-42.277 19.265-63.549 5.231-18.179 10.374-36.448 14.248-54.979 2.117-10.127 3.968-20.496 3.942-30.875-.021-8.424-1.678-16.66-4.309-24.643-3.402-10.306-8.325-20.203-14.662-29.025-5.672-7.9-12.608-15.318-21.168-20.114-9.462-5.3-20.543-6.474-31.169-5.174-5.965.728-11.837 2.029-17.692 3.355s-11.36 2.857-16.906 4.754c-19.872 6.81-37.894 17.65-54.575 30.294-15.149 11.485-29.801 23.789-43.462 37.009a415.444 415.444 0 00-23.903 25.193c-1.269 1.452.849 3.591 2.128 2.129l.021.031z" fill="#000"/><path d="M268.655 73.488c.907-9.367 2.207-18.682 3.633-27.982 1.347-8.801 2.857-17.576 4.828-26.262 2.071-9.143 4.655-18.17 7.957-26.945 3.507-9.315 7.858-18.305 13.032-26.807 2.653-4.357 5.557-8.54 8.519-12.686 2.448-3.428 4.953-6.82 7.695-10.018 5.252-6.122 11.412-11.228 18.85-14.478 8.204-3.586 17.304-4.776 26.195-4.147 8.89.63 17.456 2.999 25.466 6.595 8.01 3.596 14.887 7.973 21.057 13.676 6.469 5.976 11.569 13.168 15.559 20.995a111.567 111.567 0 012.862 6.09c.325.745 1.415.918 2.06.54.77-.45.865-1.31.54-2.06-3.643-8.36-8.272-16.297-14.379-23.111-5.803-6.474-12.859-11.78-20.486-15.915-7.627-4.136-16.565-7.434-25.466-8.949-8.901-1.514-18.552-1.43-27.505 1.038a51.912 51.912 0 00-22.232 12.66c-6.259 6.018-11.354 13.367-16.308 20.523a159.129 159.129 0 00-15.217 27.494c-3.843 8.906-6.915 18.117-9.352 27.5-2.317 8.922-4.073 17.98-5.567 27.075-1.494 9.095-2.847 18.148-3.911 27.259a404.204 404.204 0 00-.844 7.915c-.078.808.75 1.505 1.505 1.505.88 0 1.425-.692 1.504-1.505h.005z" fill="#000"/><path d="M251.488 75.093a408.97 408.97 0 015.278-43.593c2.218-12.54 5.059-24.974 8.084-37.34 2.773-11.328 5.86-22.698 10.583-33.391 4.346-9.85 10.139-18.956 17.467-26.86a131.084 131.084 0 0114.966-13.824c7.816-6.154 16.518-11.38 25.859-14.84 11.276-4.178 23.484-5.688 35.368-3.56 11.05 1.977 21.346 6.894 30.179 13.771 7.459 5.803 13.923 12.854 19.495 20.465 5.127 6.998 9.865 14.51 13.624 22.331a108.217 108.217 0 014.199 10.034c.655 1.808 3.559 1.027 2.899-.802-3.675-10.149-8.885-19.564-14.903-28.496-5.09-7.554-10.867-14.688-17.566-20.874-8.178-7.554-17.724-13.65-28.344-17.12-11.905-3.89-24.748-4.241-36.91-1.343-10.678 2.548-20.721 7.46-29.743 13.661-6.238 4.288-12.036 9.195-17.409 14.52-7.119 7.056-13.283 14.93-18.054 23.768-5.441 10.086-9.11 21.02-12.119 32.05-3.434 12.581-6.348 25.361-8.906 38.147a412.77 412.77 0 00-7.067 53.3c-.131 1.935 2.878 1.925 3.009 0l.011-.004zm-87.312 288.543c4.319 4.404 9.242 8.162 14.421 11.496 3.061 1.971 9.478 6.086 12.371 1.746 1.457-2.181 1.059-5.269.687-7.69-.126-.802-1.132-1.248-1.851-1.049-.859.236-1.174 1.043-1.048 1.851.189 1.232.246 2.453.168 3.695-.026.451.036-.178-.006.079-.015.105-.036.21-.052.314a4.884 4.884 0 01-.121.498c-.041.147-.099.284-.146.425.141-.44-.037.058-.105.173-.037.068-.247.393-.079.142.158-.236-.021.026-.078.078-.058.053-.142.116-.189.178-.11.158.189-.199.199-.152 0 .027-.189.131-.21.142a3.875 3.875 0 01-.256.136c.309-.146.099-.036.031-.031-.11.01-.236.057-.346.084.068-.016.309 0 .031-.011-.22 0-.435.011-.655 0-.052 0-.293-.031-.015.005a5.837 5.837 0 01-.43-.078c-2.354-.509-4.503-1.914-6.558-3.245-2.411-1.567-4.802-3.213-7.061-4.996a70.1 70.1 0 01-6.574-5.913c-1.357-1.384-3.486.745-2.128 2.129v-.006zm71.979.21c-1.049 2.217-2.401 4.272-4.105 6.044a27.918 27.918 0 01-1.714 1.62c-.246.215-.493.424-.739.629-.152.126-.309.252-.467.377l-.199.158c-.267.209.142-.105-.115.089a27.655 27.655 0 01-2.453 1.656c-.923.545-1.767.97-2.621 1.264a9.923 9.923 0 01-1.767.445c.068-.01.262-.026-.042 0a6.717 6.717 0 01-.802.026c-.089 0-.676-.063-.388-.015a5.275 5.275 0 01-.97-.247c-.43-.157.236.131-.178-.078a4.422 4.422 0 01-.723-.441c-.708-.545-1.374-1.646-1.683-2.474-.21-.55-.372-1.116-.498-1.688a18.436 18.436 0 01-.147-.729c-.026-.136-.126-.849-.068-.398-.105-.807-.619-1.504-1.504-1.504-.734 0-1.61.692-1.505 1.504.315 2.427.98 4.828 2.595 6.731 1.725 2.034 4.314 2.626 6.851 2.196 3.869-.65 7.371-3.365 10.196-5.955a24.746 24.746 0 005.641-7.695c.346-.734.204-1.625-.54-2.06-.656-.383-1.709-.199-2.061.54l.006.005z" fill="#000"/><path d="M189.16 373.953c1.279 1.724 2.704 3.318 4.345 4.712 1.955 1.667 4.194 3.266 6.537 4.341 2.202 1.011 4.576 1.431 6.946.775 2.065-.571 3.905-1.813 5.425-3.302 1.94-1.892 3.423-4.241 4.529-6.705.331-.739.215-1.614-.54-2.06-.644-.377-1.724-.204-2.06.54-.854 1.908-1.918 3.759-3.318 5.321-.597.671-1.316 1.368-1.992 1.861-.335.241-.681.466-1.038.676-.356.21-.776.414-1.022.509-.813.314-1.536.466-2.217.482-1.049.031-2.081-.215-3.046-.629-1.966-.844-3.895-2.165-5.557-3.507a26.384 26.384 0 01-3.69-3.638l-.409-.503c-.089-.111-.105-.137-.299-.399-.482-.65-1.3-.98-2.06-.54-.645.378-1.027 1.4-.54 2.06l.006.006zm-65.793-149.782a23.422 23.422 0 012.726-1.415c.02-.01.44-.183.152-.068a25.55 25.55 0 011.74-.645c2.841-.928 5.792-1.289 8.775-.943 5.546.639 10.573 3.915 13.75 8.408 1.887 2.668 3.145 5.609 3.842 8.796.173.792 1.096 1.258 1.851 1.048.818-.225 1.227-1.053 1.048-1.85-1.363-6.233-4.943-11.889-10.185-15.559-5.242-3.669-12.471-4.896-18.903-3.098a25.414 25.414 0 00-6.317 2.726c-1.651 1.007-.141 3.607 1.521 2.6zm146.657-.078c-4.75-3.329-10.7-5.226-16.502-4.985-7.313.304-14.201 3.91-18.856 9.524a30.492 30.492 0 00-5.824 11.056c-.608 2.113 2.684 3.019 3.292.907 1.782-6.212 5.745-11.742 11.281-15.024 2.726-1.614 5.693-2.684 9-2.983 3.502-.314 6.705.168 10.008 1.363.382.137.76.289 1.137.441-.293-.121.215.094.299.131a27.89 27.89 0 012.228 1.122c.76.424 1.504.891 2.217 1.389.755.529 1.898.136 2.333-.614.498-.849.147-1.803-.613-2.332v.005zm-3.02-164.942c-4.859-1.363-9.823-1.373-14.683-.015-3.308.922-1.929 6.091 1.4 5.163 3.973-1.106 7.868-1.111 11.842 0 3.318.928 4.759-4.22 1.446-5.148h-.005zm39.164 19.391c-2.674-4.22-6.653-7.255-11.46-8.655-3.307-.965-4.749 4.188-1.446 5.148 3.454 1.006 6.342 3.135 8.272 6.185 1.834 2.9 6.479.242 4.628-2.678h.006zm8.953-8.817c-2.579-5.153-7.58-8.314-13.236-8.912-3.418-.361-3.423 4.99-.026 5.347 3.816.404 6.946 2.868 8.633 6.238 1.542 3.077 6.17.398 4.629-2.679v.006zm7.57-7.335c-2.674-4.554-6.836-7.841-11.863-9.45-3.287-1.049-4.718 4.104-1.447 5.147 3.706 1.185 6.71 3.628 8.676 6.977 1.74 2.967 6.379.3 4.628-2.678l.006.005zm-99.993 177.455c.975-6.71 3.837-13.042 8.356-18.111.613-.687.676-1.735 0-2.411-.624-.624-1.798-.692-2.411 0-4.891 5.478-8.178 12.334-9.237 19.615-.131.912.226 1.835 1.19 2.097.802.22 1.966-.272 2.097-1.19h.005zm-4.23.157c-.351-4.759.367-9.603 2.259-14.001.362-.844.252-1.83-.613-2.333-.718-.419-1.966-.241-2.333.613-2.133 4.959-3.124 10.327-2.726 15.721.069.918.734 1.704 1.704 1.704.87 0 1.772-.781 1.704-1.704h.005zm-49.637-2.741c-2.836-6.983-7.617-12.964-13.839-17.226-.76-.518-1.893-.141-2.333.614-.493.844-.152 1.814.613 2.333 5.41 3.706 9.814 9.131 12.272 15.186.346.854 1.138 1.457 2.097 1.19.807-.22 1.541-1.243 1.19-2.097zm4.309-.435a32.75 32.75 0 00-6.154-14.238c-.556-.734-1.473-1.116-2.333-.613-.723.425-1.174 1.593-.613 2.333a30.607 30.607 0 015.808 13.425c.152.906 1.274 1.42 2.097 1.189.964-.262 1.347-1.184 1.19-2.096h.005z" fill="#000"/><path d="M522.581 564.549l-34.734-.163c-27.18-.12-54.36-.251-81.546-.388a1.347 1.347 0 01-.22 0c-32.999-.152-66.003-.304-99.007-.461l-80.654-.383c.037-.409.068-.823.105-1.247.026-.31.047-.624.079-.933.802-9.384 1.84-22.646 2.757-38.545.005-.042.005-.089.005-.126.032-.529.058-1.054.089-1.573.037-.655.074-1.31.116-1.971.021-.393.052-.781.068-1.163a1388.93 1388.93 0 001.2-26.714c.089-.141.184-.272.268-.414a84.418 84.418 0 004.89-8.775 76.77 76.77 0 006.024-17.807c.487-2.391.812-4.54 1.032-6.506.047-.419.089-.828.131-1.232.173-1.766.283-3.381.393-4.896.325-4.823.619-8.681 2.863-13.189.33-.66.702-1.342 1.132-2.029 1.609-2.61 3.968-5.394 7.527-8.072 1.626-1.222 3.497-2.417 5.662-3.57a2.5 2.5 0 00.199-.105c.336-.173.676-.351 1.033-.524 2.689-1.342 5.803-2.6 9.399-3.738a55.558 55.558 0 00-2.831 4.954 375.93 375.93 0 0011.27-8.435 210.898 210.898 0 002.81-2.217c29.676 5.41 53.758 4.839 71.848 2.763 13.105-1.51 27.169-4.278 42.796-6.307 22.672-2.946 48.641-4.329 79.779 1.972 1.536.309 3.014.623 4.414.938h.005a227.342 227.342 0 0112.581 3.177 1748.476 1748.476 0 0118.536 87.767c.057.336.126.671.183 1.002.126.66.241 1.315.367 1.981.231 1.206.446 2.406.661 3.622a922.5 922.5 0 01.65 3.633c.22 1.211.435 2.427.644 3.648.215 1.217.425 2.438.64 3.654.807 4.603 1.588 9.226 2.359 13.876a1766.296 1766.296 0 014.482 28.522l-.005-.026z" fill="#6B7D95"/><path d="M437.717 413.494a210.76 210.76 0 00-20.622 36.935c-.063.131-.116.273-.178.409-.184.425-.357.854-.535 1.274-6.789 16.046-10.883 31.311-13.331 44.867-.005.015-.005.031-.005.047a219.011 219.011 0 00-3.213 28.726c-.1.021-.2.047-.31.063h-.005c-1.483.325-3.019.655-4.597.97-.991.204-2.003.398-3.02.592-.854.163-1.735.325-2.615.483-.441.083-.881.162-1.332.241a77.91 77.91 0 01-1.688.298c-.356.058-.707.116-1.064.173-.566.1-1.143.194-1.725.289-.346.057-.702.115-1.058.168-.63.099-1.264.199-1.909.293-.76.126-1.541.236-2.322.351-1.787.252-3.606.498-5.457.729-.718.089-1.431.173-2.154.257-.682.078-1.374.162-2.066.236-2.081.23-4.199.44-6.369.634-.718.063-1.447.126-2.175.183-1.51.126-3.051.242-4.603.341-.686.042-1.378.089-2.07.131-.755.042-1.51.079-2.275.121-1.547.078-3.104.147-4.682.199-.76.031-1.525.052-2.29.079-.781.021-1.578.036-2.375.057l-.781.016c-.535.011-1.075.016-1.609.021-.687.01-1.384.016-2.081.016-.918.01-1.846 0-2.784 0-1.043 0-2.081-.016-3.114-.037-1.048-.01-2.097-.037-3.14-.063a289.814 289.814 0 01-3.019-.094c-.136 0-.273-.011-.409-.016a306.33 306.33 0 01-2.432-.1c-.315-.015-.624-.031-.928-.041-.818-.042-1.631-.09-2.438-.132-.005.006-.015 0-.015 0-1.012-.057-2.013-.125-3.009-.188a298.604 298.604 0 01-10.631-.912c-.068 0-.137-.006-.2-.016a301.462 301.462 0 01-52.085-10.128c-.665-.188-1.326-.388-1.976-.576a20.939 20.939 0 01-.141-.808 582.914 582.914 0 01-6.432-46.004c-.011-.052-.011-.115-.021-.168a634.26 634.26 0 01-1.384-16.035c.047-.419.089-.828.131-1.232.173-1.767.283-3.381.393-4.896.325-4.823.618-8.681 2.862-13.189.33-.661.703-1.342 1.132-2.029 1.61-2.61 3.969-5.394 7.528-8.073 1.625-1.221 3.496-2.416 5.661-3.569.069-.032.137-.069.2-.105.335-.173.676-.351 1.032-.524 2.689-1.342 5.803-2.601 9.399-3.738a55.56 55.56 0 00-2.83 4.954 378.557 378.557 0 0011.27-8.435 217.6 217.6 0 002.81-2.217c3.355-2.663 4.382-3.601 5.797-4.55 4.315-2.899 9.106-3.806 13.792-3.927 2.286.1 4.571.189 6.857.289 15.695.66 31.311 1.41 46.859 2.238 13.839.734 27.615 1.536 41.333 2.401a4419.55 4419.55 0 0140.437 2.731l.011-.01z" fill="#FFE0AE"/><path d="M283.574 414.893a24.851 24.851 0 012.815-2.574c1.007-.786 5.866-4.455 13.441-5.341 3.853-.451 6.825.01 7.658.131 6.333.933 19.894 1.808 47.551 2.353-.97 2.281-1.945 4.561-2.914 6.841-4.87-1.012-8.818-.681-11.25-.288-3.213.519-9.734 1.573-13.645 6.552-2.102 2.674-2.689 5.52-2.967 7.077-1.51 8.613-4.566 41.769-7.879 86.672-4.078-.288-8.162-.576-12.24-.859a437.335 437.335 0 004.545-60.923 440.835 440.835 0 00-.634-25.535c-.797-2.117-2.684-6.196-6.857-9.535-7.334-5.866-15.936-4.812-17.613-4.576l-.011.005z" fill="#D86F64"/><path d="M418.107 571.395c-15.774-2.747-29.723-5.368-40.946-16.633-6.637-6.663-9.321-13.336-13.483-23.689-1.682-4.189-5.347-13.97-9.876-48.054-2.285-17.189-3.428-25.781-3.349-33.79.12-12.676.387-26.368 7.244-42.089 6.369-14.604 15.171-23.495 17.524-25.791 12.235-11.946 25.445-16.968 32.491-19.091-.357-1.059-3.277-10.128 1.997-16.932 1.053-1.358 4.005-5.164 8.911-5.295 4.598-.126 7.711 3.062 8.304 3.691.257-2.564 1.425-11.024 8.219-16.078 4.424-3.292 9.326-3.318 19.123-3.381 9.373-.057 16.293-.105 19.878 4.676 1.997 2.663 2.254 5.882 2.144 8.183.257.818.839 2.28 1.966 2.553 1.85.456 3.905-2.605 4.681-3.759 2.474-3.685 2.894-7.155 3.323-9.063 2.055-9.205 11.989-16.701 15.035-15.239 1.515.729 1.163 3.591 1.069 10.652-.12 8.728.257 15.784.592 20.402a10.094 10.094 0 014.063.084c3.381.776 5.336 3.098 5.96 3.911 2.233.933 4.472 1.86 6.705 2.794 4.98-.126 9.551-1.353 13.042-4.372 3.434-2.973 3.255-5.463 7.066-8.519 4.86-3.895 11.889-5.242 13.305-3.255.225.315.776 1.363-3.051 7.559-5.74 9.294-9.897 11.643-12.004 18.505a23.828 23.828 0 00-.975 5.126c3.208-1.599 6.274-.975 7.218.65.126.215.639 1.185.047 2.904 2.642-.571 4.739-.246 5.263.829.11.22.398.98-1.153 3.396-.954 1.489-2.611 3.623-5.447 5.646a19.97 19.97 0 01.042 6.815c.519.86 1.164 2.191 1.421 3.905.555 3.691-1.043 6.563-1.615 7.491 1.08.954 2.616 2.59 3.444 4.996.891 2.595.435 5.011-.513 9.734-.823 4.089-1.279 6.354-2.873 9.022-1.877 3.135-2.847 2.684-3.916 5.111-1.326 3.014-.451 5.116-.21 10.395.1 2.207-.083 1.101-.382 9.451-.409 11.559-.063 13.97-1.819 17.54-1.347 2.742-3.172 4.592-4.388 5.667 3.942 16.638 7.04 28.92 9.441 36.511.65 2.049 2.228 6.867 2.055 13.315a37.507 37.507 0 01-1.258 8.644c.304 3.549.419 10.473-2.831 18.2-1.001 2.38-3.182 6.893-7.244 11.192-6.93 7.334-15.449 9.949-22.248 11.648-17.618 4.408-33.47 5.106-49.726 5.258-21.482.204-32.223.309-42.282-1.442l.016.016z" fill="#FFCE00"/><path d="M424.271 377.37c-3.863-5.352-8.56-10.725-15.81-10.059-6.631.613-14.284 4.739-17.445 10.778-3.754 7.16-1.353 14.976-1.353 22.588 0 3.512-.692 7.517-3.433 9.991-2.171 1.961-7.266 3.171-10.128 2.427-3.837-1.001-3.517-8.571-.923-10.631 1.353-1.074 4.325-2.406 5.463-.529 1.137 1.876-.284 4.733-1.017 6.547-1.29 3.192 3.884 4.576 5.158 1.421 1.557-3.864 2.678-8.692-.54-12.094-2.878-3.045-7.449-2.437-10.804-.566-3.748 2.092-5.766 5.955-5.515 10.222.215 3.649 1.447 8.256 4.923 10.128 3.475 1.871 9.079.865 12.628-.404 3.826-1.368 6.531-4.351 8.046-8.067 1.783-4.367 1.61-9.08 1.169-13.693-.44-4.613-1.294-9.865.739-14.253 2.034-4.387 7.58-7.464 12.324-8.398 5.547-1.09 8.996 3.266 11.9 7.287 1.997 2.762 6.636.1 4.618-2.7v.005z" fill="#FFF7D7"/><path d="M381.171 376.5c-38 27.023-33.313 82.138-25.199 122.25 2.296 11.344 5.164 22.688 9.074 33.592 3.261 9.1 7.57 18.153 14.495 25.062 7.27 7.255 16.884 10.846 26.897 12.319 11.291 1.661 22.892 1.682 34.283 1.756 28.123.178 56.221-1.95 84.025-6.191 3.391-.519 1.95-5.672-1.421-5.158a524.892 524.892 0 01-70.731 5.939c-11.506.189-23.039.052-34.529-.577-9.829-.54-20.13-1.74-28.669-7.035-8.031-4.974-13.226-13.215-16.916-21.712-4.11-9.473-6.794-19.674-9.2-29.686-5.227-21.786-8.487-44.804-7.171-67.245 1.294-22.08 9.026-45.381 27.762-58.701 2.783-1.976.115-6.62-2.7-4.618v.005z" fill="#FFF7D7"/><path d="M451.456 402.842c-3.527-6.191-8.874-11.03-15.5-13.714-5.981-2.421-15.931-4.146-21.362.483-5.488 4.681-4.099 14.515-3.224 20.764 1.159 8.266 3.104 16.454 4.855 24.627a2.735 2.735 0 00-.341.393c-1.856 2.6-4.32 4.676-7.255 5.96-2.658 1.164-5.583 1.431-8.298 2.406-5.436 1.945-8.325 6.679-8.513 12.356-.409 12.051 10.232 22.687 19.542 28.81 1.573 1.033 3.339-.068 3.937-1.578.11-.283.225-.566.335-.854.849-2.155-1.205-3.491-3.019-3.177-7.743-5.478-17.797-15.627-15.097-25.602 1.551-5.724 7.81-5.331 12.371-7.119 3.79-1.483 6.893-3.874 9.425-6.951 1.515-.099 3.062-1.379 2.658-3.318-1.368-6.584-2.768-13.163-4.094-19.757-1.248-6.191-3.235-14.185-1.253-20.423 2.013-6.349 12.796-3.911 17.356-2.097 5.531 2.201 9.924 6.327 12.849 11.459 1.703 2.988 6.337.32 4.628-2.679v.011z" fill="#FFF7D7"/><path d="M420.575 351.181c1.914.739 4.1.016 5.526-1.357 1.556-1.5 2.102-3.733 1.509-5.803-.592-2.071-2.191-3.874-4.172-4.744-2.265-.991-4.818-.991-7.177-.31-3.942 1.143-7.255 4.058-9.179 7.654-1.992 3.727-2.474 8.041-1.394 12.125 1.08 4.083 3.69 7.852 7.134 10.421 3.586 2.679 8.115 4.005 12.56 4.052 2.312.026 4.587-.346 6.82-.917 2.233-.572 4.519-1.321 6.841-1.096 2.081.204 3.617 1.546 5.012 2.977 1.557 1.605 3.066 3.324 5.116 4.32 1.054.514 2.196.87 3.381.854 1.185-.015 2.317-.424 3.376-.985.781-.409 1.583-1.001 2.479-1.106 1.033-.126 2.092.382 3.036.728 1.986.729 4.004.975 6.059.352a9.58 9.58 0 004.881-3.402 8.47 8.47 0 001.3-2.543c.251-.77-.294-1.641-1.049-1.85-.812-.226-1.598.272-1.85 1.048-.865 2.674-4.031 4.561-6.699 4.052-2.165-.414-4-1.688-6.291-1.321-.954.152-1.835.593-2.673 1.054-.713.388-1.437.854-2.26.949-1.782.204-3.486-1.08-4.697-2.239-1.436-1.373-2.694-2.898-4.293-4.099-1.719-1.289-3.816-1.892-5.96-1.835-2.144.058-4.377.692-6.511 1.237-3.8.97-7.658 1.117-11.443-.01-3.523-1.048-6.731-3.171-8.87-6.186-2.07-2.914-3.218-6.432-2.93-10.022.262-3.219 1.877-6.411 4.278-8.655 2.4-2.244 6.285-3.926 9.582-2.616 1.421.566 2.637 1.966 2.81 3.444.084.713-.079 1.295-.441 1.851-.272.419-.849.875-1.237 1.043a3.448 3.448 0 01-.555.168c-.273.062-.116.041-.331.036-.356 0-.461-.021-.891-.188-.76-.294-1.651.325-1.85 1.048-.236.849.288 1.557 1.048 1.85l.005.021z" fill="#000"/><path d="M407.313 360.806c-5.656 2.374-11.354 4.98-16.565 8.23-2.364 1.473-4.534 3.286-5.944 5.724-1.41 2.438-2.034 5.179-2.286 7.936-.278 3.041-.058 6.134.493 9.132.278 1.499.65 2.978 1.127 4.424.477 1.447 1.059 2.857 1.473 4.325.65 2.312.687 4.697-.933 6.547-.687.787-1.515 1.353-2.506 1.605-.87.22-1.782.131-2.721-.247-.87-.351-1.708-1.064-2.123-2.013-.361-.823-.393-2.238.467-2.956.76-.635 1.767-.483 2.081.309.126.314.084.482-.157.692.136-.115-.058.042-.079.052-.23.163.026.027-.22.105-.414.131.1.021-.141.021 0 0-.147-.031-.069.011-.734-.352-1.625-.205-2.06.54-.382.655-.199 1.708.54 2.06 1.457.692 3.135.409 4.262-.771 1.127-1.179 1.258-2.967.446-4.356-1.809-3.093-6.338-2.427-7.78.645-1.441 3.072.095 6.479 2.883 8.046 2.475 1.389 5.588 1.295 7.905-.372 2.538-1.819 3.911-4.891 3.612-7.994-.325-3.434-2.002-6.558-2.783-9.892-.781-3.334-1.033-6.746-.698-10.122.278-2.773 1.117-5.683 2.994-7.816 2.343-2.668 5.761-4.272 8.854-5.897a139.155 139.155 0 0110.72-5.064c.749-.315 1.284-.996 1.048-1.851-.194-.707-1.096-1.368-1.85-1.048l.01-.005z" fill="#000"/><path d="M385.91 408.975c.922-2.799 1.174-5.866-.184-8.571-1.258-2.5-3.91-3.868-6.579-4.325-2.668-.456-5.582-.141-7.831 1.505-1.997 1.462-3.392 3.617-4.026 6.007-1.326 5.006.697 10.469 4.823 13.53 4.125 3.061 9.75 3.208 14.169.708 5.3-2.993 8.088-8.681 9.719-14.316.54-1.861-2.365-2.658-2.899-.802-1.216 4.209-3.035 8.376-6.469 11.244-3.004 2.511-7.056 3.392-10.73 1.877-3.644-1.505-5.997-5.169-6.008-9.085-.01-3.916 2.364-7.58 6.369-7.858 2.149-.152 4.938.383 6.348 2.17 1.599 2.029 1.143 4.844.399 7.109-.252.77.293 1.64 1.048 1.85.818.226 1.594-.278 1.851-1.048v.005zm33.077-38.404c-4.618-2.495-9.85-3.79-15.081-2.888-4.75.818-8.943 3.643-11.386 7.806a16.36 16.36 0 00-2.202 7.344c-.047.812.724 1.504 1.505 1.504.854 0 1.457-.692 1.504-1.504.215-3.691 2.107-7.266 5.033-9.567 3.292-2.59 7.831-3.355 11.894-2.658 2.542.435 4.954 1.332 7.218 2.558 1.704.923 3.224-1.677 1.52-2.6l-.005.005z" fill="#000"/><path d="M408.933 371.651c-3.748-.723-7.57.2-10.547 2.6-2.773 2.239-4.383 5.735-4.535 9.268-.036.813.719 1.505 1.505 1.505.844 0 1.468-.687 1.504-1.505.116-2.715 1.416-5.268 3.497-7.008 2.081-1.741 5.106-2.469 7.779-1.955.797.152 1.625-.226 1.85-1.049.205-.734-.246-1.693-1.048-1.85l-.005-.006zm-34.524 40.375c2.652 2.485 6.584 3.496 10.064 2.291 3.481-1.206 5.882-4.032 6.71-7.544.886-3.763.231-7.705-.283-11.475-.514-3.769-1.095-7.674-.781-11.532.294-3.544 1.431-7.155 3.937-9.766 1.342-1.4-.786-3.528-2.128-2.128-4.986 5.2-5.337 12.769-4.551 19.532.43 3.695 1.196 7.401 1.227 11.134.026 2.946-.613 6.101-3.15 7.926a7.04 7.04 0 01-8.922-.572c-1.41-1.321-3.544.802-2.129 2.129l.006.005zm27.678 70.301c-5.19-4.419-9.625-9.661-13.069-15.548-1.782-3.051-3.297-6.306-3.9-9.818a14.878 14.878 0 011.452-9.347c1.484-2.878 3.748-5.352 6.348-7.307 2.6-1.956 5.546-3.392 8.414-4.959 2.689-1.473 5.352-3.282 6.925-5.992 1.572-2.71 1.808-6.049.99-9.048-2.018-7.391-9.54-11.024-16.706-11.307-1.934-.079-1.934 2.93 0 3.009 5.63.22 11.837 2.857 13.671 8.634.823 2.6.682 5.383-.859 7.695-1.542 2.312-4.252 3.748-6.684 5.027-2.962 1.557-5.85 3.161-8.461 5.274-2.61 2.112-4.885 4.728-6.379 7.747-1.494 3.02-2.212 6.584-1.798 10.06.414 3.475 1.766 7.024 3.475 10.217 3.612 6.751 8.629 12.827 14.452 17.786.619.524 1.521.608 2.129 0 .54-.54.624-1.599 0-2.128v.005z" fill="#000"/><path d="M420.051 485.535c-7.784-3.098-15.605-7.087-21.083-13.608-2.543-3.025-4.508-6.6-5.504-10.432-.918-3.528-1.243-7.936.566-11.244 1.709-3.13 5.058-3.879 8.371-4.503 3.638-.687 7.292-1.3 10.243-3.717 2.952-2.416 4.666-6.285 5.174-10.049.634-4.67-.451-9.362-1.85-13.797-2.406-7.622-6.584-16.916-1.751-24.491a10.662 10.662 0 011.73-2.06c1.415-1.331-.718-3.454-2.129-2.128-3.066 2.883-4.497 7.014-4.765 11.139-.309 4.739 1.059 9.415 2.532 13.86 1.473 4.446 3.256 9.169 3.408 14.012.115 3.67-.802 7.596-3.376 10.353-2.574 2.758-6.055 3.245-9.567 3.895-3.68.682-7.449 1.641-9.834 4.765-2.632 3.449-2.778 8.283-2.149 12.403.629 4.12 2.427 8.172 4.838 11.616 5.164 7.365 13.037 12.104 21.173 15.585 1.053.451 2.107.886 3.171 1.31.755.299 1.651-.33 1.851-1.048.236-.854-.294-1.546-1.049-1.85v-.011z" fill="#000"/><path d="M392.452 457.469c-1.568-2.742-1.63-6.222-.068-8.985 1.562-2.762 4.115-4.372 6.731-5.787 5.609-3.035 12.407-5.321 14.897-11.805 1.29-3.366.818-7.192-.387-10.505-1.206-3.313-3.245-6.432-5.258-9.452-1.877-2.815-3.79-5.714-4.734-9-.886-3.083-.77-6.354.21-9.399 2.233-6.93 9.137-11.365 16.345-10.883.812.053 1.504-.728 1.504-1.504 0-.86-.692-1.452-1.504-1.505-7.02-.466-14.081 3.229-17.593 9.342-1.772 3.082-2.684 6.699-2.558 10.253.126 3.554 1.421 7.103 3.24 10.269 1.819 3.166 4.162 6.133 5.934 9.384 1.625 2.977 2.92 6.463 2.495 9.907-.839 6.789-8.377 9.278-13.577 12.01-3.25 1.703-6.49 3.879-8.34 7.15-2.092 3.695-2.034 8.35.068 12.025.959 1.683 3.559.168 2.6-1.52l-.005.005z" fill="#000"/><path d="M411.292 392.441c3.606-4.487 8.555-7.836 14.274-8.864a19.54 19.54 0 019.042.509c2.91.875 5.269 2.364 7.423 4.267 4.535 4.01 8.042 9.268 11.119 14.436 3.077 5.169 5.881 11.161 7.91 17.131 1.976 5.824 3.727 12.403 8.822 16.356.64.498 1.499.623 2.129 0 .519-.519.644-1.625 0-2.129-4.477-3.465-6.076-9.126-7.795-14.269-2.081-6.222-4.75-12.235-8.052-17.901a91.055 91.055 0 00-5.436-8.262c-1.845-2.5-3.801-4.938-6.086-7.045-2.286-2.107-5.027-3.963-8.042-5.08-3.014-1.116-6.473-1.525-9.729-1.195-6.998.708-13.33 4.482-17.702 9.929-.509.634-.619 1.509 0 2.128.524.524 1.614.634 2.128 0l-.005-.011zm129.547 133.254c1.352 10.625-2.359 21.571-9.698 29.345-3.937 4.172-8.822 7.187-14.217 9.095-5.986 2.117-12.318 3.024-18.619 3.622-14.264 1.347-28.617 2.359-42.938 2.878-14.091.513-28.349.492-42.356-1.295-12.004-1.536-24.066-5.106-32.936-13.729-8.34-8.109-13.283-19.076-16.643-30.047-4.089-13.352-6.238-27.222-7.947-41.051-1.709-13.829-3.575-27.568-3.717-41.412-.131-12.932 1.625-25.975 7.24-37.743 4.848-10.159 12.088-19.207 21.031-26.058a71.636 71.636 0 016.841-4.619c1.661-.99.152-3.59-1.521-2.6-10.043 5.982-18.578 14.379-24.816 24.266-6.872 10.888-10.436 23.264-11.448 36.049-1.112 14.117.608 28.266 2.212 42.272 1.656 14.437 3.386 28.921 6.851 43.053 2.931 11.958 7.04 24.088 14.537 34.011 3.638 4.812 8.015 9.016 13.178 12.172 5.399 3.302 11.464 5.436 17.624 6.82 6.463 1.452 13.079 2.133 19.679 2.584 7.443.509 14.908.661 22.367.577 14.946-.168 29.859-1.29 44.757-2.453 12.744-.996 26.64-1.767 37.423-9.457 9.153-6.526 15.076-17.016 16.224-28.171.278-2.7.236-5.415-.105-8.104-.104-.807-.618-1.505-1.504-1.505-.734 0-1.609.692-1.505 1.505l.006-.005z" fill="#000"/><path d="M383 385.747c-4.078 2.81-7.464 6.548-9.786 10.925-.383.718-.184 1.635.539 2.06.682.398 1.678.178 2.061-.54 2.091-3.942 5.09-7.349 8.707-9.845.665-.461.969-1.32.54-2.06-.388-.66-1.384-1.001-2.061-.54zm-26.949 21.11c-12.481-.057-24.963-.382-37.407-1.373-6.16-.488-12.403-1.552-18.589-1.038-3.454.288-6.83 1.064-9.949 2.605-2.092 1.033-3.89 2.448-5.693 3.911a367.428 367.428 0 01-16.623 12.706c-.66.472-.975 1.311-.54 2.061.383.65 1.395 1.017 2.061.54a379.8 379.8 0 0015.149-11.502c1.007-.807 2.008-1.625 3.014-2.432.173-.136.346-.272.514-.409.346-.272-.131.089.21-.162.34-.252.655-.477.99-.708 2.794-1.877 5.987-2.972 9.31-3.439 6.149-.865 12.434.231 18.573.745 5.294.445 10.594.765 15.899 1.001 7.69.335 15.38.466 23.076.503 1.934.011 1.939-2.998 0-3.009h.005z" fill="#000"/></g><path d="M406.238 236.003c-.026 17.912-2.794 35.714-8.329 52.756-5.31 16.35-13.158 31.824-23.102 45.841a169.1 169.1 0 01-35.269 36.569c-13.603 10.411-28.784 18.814-44.871 24.701a170.345 170.345 0 01-52.091 10.243c-17.912.671-35.855-1.426-53.102-6.312-16.664-4.723-32.532-12.015-47.005-21.534-14.217-9.347-26.976-20.853-37.827-33.958-10.883-13.142-19.83-28.03-26.268-43.84-6.437-15.81-10.772-33.606-12.11-51.152-1.373-18.011.038-36.201 4.326-53.752a169.772 169.772 0 0119.736-47.708c8.87-14.63 19.93-27.861 32.716-39.231 12.785-11.37 27.253-20.727 42.801-27.799 15.548-7.071 33.041-11.978 50.392-13.949 17.896-2.034 36.128-1.32 53.783 2.275a169.656 169.656 0 0148.799 18.075 171.358 171.358 0 0140.248 31.148 171.624 171.624 0 0129.44 41.879c7.653 15.343 13.073 32.412 15.757 49.632 1.347 8.633 1.961 17.377 1.971 26.116 0 3.507 5.452 3.512 5.447 0-.026-18.363-2.852-36.737-8.524-54.203-5.473-16.853-13.509-32.889-23.783-47.331a178.291 178.291 0 00-36.731-38.062c-14.044-10.778-29.702-19.343-46.319-25.445s-35.279-9.803-53.516-10.51c-18.436-.719-37.035 1.467-54.79 6.5-17.755 5.032-33.465 12.324-48.306 22.08-14.84 9.755-28.013 21.554-39.216 35.158a178.381 178.381 0 00-27.206 45.464c-6.898 16.806-11.05 34.676-12.455 52.787-1.405 18.112.073 37.209 4.445 55.215s11.108 34.005 20.34 49.239a176.53 176.53 0 0033.737 40.484c13.184 11.69 28.093 21.435 44.149 28.69 16.581 7.491 34.183 12.34 52.248 14.447 18.064 2.107 37.26 1.321 55.471-2.369 17.529-3.549 34.508-9.861 50.135-18.557a176.48 176.48 0 0041.711-32.276c12.141-12.722 22.405-27.274 30.236-43.021 8.01-16.104 13.556-33.413 16.277-51.194a181.127 181.127 0 002.097-27.091c0-3.507-5.442-3.512-5.447 0l.005-.005z" fill="#000"/><path d="M466.553 236.002c-.031 24.234-3.779 48.348-11.27 71.408-7.491 23.06-17.797 43.084-31.253 62.055-13.341 18.803-29.592 35.662-47.907 49.663-18.316 14.002-38.965 25.44-60.745 33.408a230.546 230.546 0 01-70.511 13.85c-24.234.906-48.536-1.935-71.869-8.55-22.551-6.39-44.038-16.261-63.623-29.136-19.238-12.649-36.526-28.212-51.21-45.946-14.787-17.86-26.923-38.063-35.672-59.545-8.748-21.482-14.551-45.496-16.36-69.242-1.856-24.37.068-49.003 5.866-72.749a229.834 229.834 0 0126.713-64.577c12.136-20.025 26.97-37.722 44.275-53.102 17.278-15.36 36.878-28.071 57.914-37.638 21.036-9.567 44.862-16.266 68.446-18.945 23.584-2.679 48.897-1.767 72.791 3.103 23.893 4.87 45.448 12.974 66.044 24.476a231.93 231.93 0 0154.481 42.156 231.752 231.752 0 0139.85 56.672c10.358 20.759 17.713 43.855 21.351 67.166 1.83 11.732 2.679 23.605 2.695 35.473 0 3.507 5.451 3.513 5.446 0-.037-24.684-3.832-49.364-11.464-72.854-7.633-23.489-18.169-44.195-31.982-63.607a238.824 238.824 0 00-49.202-50.994c-18.866-14.484-39.913-26.027-62.244-34.22-23.029-8.462-47.404-13.196-71.921-14.15-24.79-.965-49.774 1.966-73.646 8.733a235.042 235.042 0 00-64.923 29.686C86.834 51.613 68.98 67.58 53.92 85.865a237.686 237.686 0 00-36.448 60.902C8.439 168.778 2.6 193.369.707 217.708c-1.929 24.837.084 50.009 5.96 74.217 5.646 23.274 14.925 45.7 27.338 66.181a237.105 237.105 0 0045.354 54.407c17.718 15.716 37.769 28.795 59.356 38.545 22.195 10.028 45.8 16.538 69.992 19.359 24.811 2.893 50.083 1.798 74.568-3.161 23.563-4.771 46.382-13.247 67.387-24.937 20.711-11.527 39.698-26.231 56.064-43.383 16.318-17.105 30.1-36.663 40.631-57.83 10.767-21.645 18.2-44.92 21.859-68.823a241.73 241.73 0 002.789-36.291c0-3.507-5.441-3.512-5.446 0l-.006.01z" fill="#000"/></g><defs><clipPath id="clip0_67_2080"><path fill="#fff" d="M0 0h472v472H0z"/></clipPath></defs></svg>